<?xml version="1.0" standalone="no"?>
<!DOCTYPE svg PUBLIC "-//W3C//DTD SVG 20010904//EN"
 "http://www.w3.org/TR/2001/REC-SVG-20010904/DTD/svg10.dtd">
<svg version="1.0" xmlns="http://www.w3.org/2000/svg"
 width="1000.000000pt" height="500.000000pt" viewBox="0 0 1000.000000 500.000000"
 preserveAspectRatio="xMidYMid meet">

<g transform="translate(0.000000,500.000000) scale(0.100000,-0.100000)"
fill="#000000" stroke="none">
<path d="M2013 4483 c0 -804 -2 -896 -21 -881 -12 10 -14 10 -8 1 5 -9 0 -13
-18 -13 -14 0 -28 5 -31 10 -3 6 -17 10 -31 10 -13 0 -24 5 -24 11 0 7 -14 10
-35 7 -34 -4 -47 5 -22 16 6 3 -1 3 -16 -1 -20 -4 -32 0 -43 13 -9 11 -12 13
-9 6 6 -11 3 -11 -14 -1 -15 10 -17 16 -8 22 8 6 6 7 -6 3 -10 -3 -23 -6 -28
-6 -5 0 -9 -8 -10 -17 0 -15 -2 -15 -8 2 -8 19 -8 19 -20 -3 -7 -12 -17 -20
-23 -16 -6 4 -8 3 -4 -4 3 -6 2 -14 -4 -17 -8 -5 -8 -11 0 -20 7 -8 7 -15 1
-19 -17 -11 0 -45 26 -48 l25 -3 -26 -30 c-23 -26 -26 -38 -24 -90 2 -57 1
-60 -23 -62 l-24 -2 25 8 c17 6 1 8 -53 7 l-77 -1 -1 45 c-1 71 -9 104 -27
119 -16 13 -16 13 0 8 10 -3 20 -2 23 4 4 5 3 9 -2 8 -4 -1 -18 -1 -30 0 -20
1 -23 6 -23 46 0 39 -3 45 -24 51 -38 9 -70 1 -81 -21 -5 -11 -22 -36 -37 -56
-16 -20 -28 -41 -28 -47 0 -6 -13 -20 -30 -32 -24 -17 -33 -19 -51 -10 -11 7
-23 9 -27 6 -3 -3 0 -6 6 -6 7 0 12 -7 12 -15 0 -9 -9 -15 -25 -15 -33 0 -96
-31 -88 -43 3 -6 1 -7 -5 -3 -6 3 -13 2 -17 -4 -3 -5 -15 -10 -26 -10 -14 0
-19 -7 -19 -25 0 -29 -25 -34 -33 -6 -2 10 -19 24 -36 32 -19 8 -29 19 -26 27
3 8 5 17 5 21 0 3 12 8 27 9 14 1 29 5 32 8 3 3 -5 5 -19 4 -33 -3 -67 9 -73
24 -3 7 -8 80 -11 162 -4 82 -9 195 -12 252 l-6 102 -414 0 -414 0 0 -1599 0
-1600 58 -7 c31 -4 280 -8 552 -8 l495 -1 0 -30 0 -30 -81 4 c-47 1 -84 -2
-88 -7 -7 -11 19 -18 109 -27 33 -4 60 -7 60 -8 0 -1 8 -17 18 -35 16 -28 18
-50 15 -129 -2 -63 1 -98 8 -100 6 -2 36 11 67 29 30 18 79 46 107 61 29 16
55 37 57 48 4 12 11 18 19 15 8 -3 20 -8 28 -12 7 -3 20 6 30 21 14 21 20 24
32 14 9 -7 14 -8 14 -1 0 6 10 14 23 18 12 4 39 24 61 45 21 22 46 39 56 39 9
0 28 8 41 18 34 26 299 111 368 118 54 6 57 5 69 -20 19 -43 14 -78 -18 -114
-16 -17 -33 -32 -36 -32 -10 0 -33 -33 -34 -47 0 -17 27 -17 33 0 2 6 8 9 13
4 4 -4 0 -30 -10 -57 -10 -27 -15 -54 -11 -60 11 -17 43 -11 60 13 l16 22 59
-63 c32 -34 67 -62 78 -62 38 0 66 -46 72 -118 4 -37 3 -83 0 -102 -3 -19 -4
-72 -2 -118 l4 -82 404 0 c256 0 404 4 404 10 0 28 -48 39 -183 42 -161 3
-167 7 -135 78 17 36 19 56 14 108 -5 58 -12 76 -50 127 -6 9 5 28 37 61 35
36 47 57 47 79 0 32 54 155 73 167 6 4 12 24 12 44 0 32 4 39 28 45 15 4 187
3 381 -2 195 -5 374 -5 399 0 39 7 65 2 86 -15 7 -6 -31 -44 -43 -44 -6 0 -31
-20 -54 -44 -46 -46 -83 -58 -154 -52 -21 2 -55 0 -75 -5 -21 -6 -51 -12 -66
-15 -34 -7 -67 -37 -67 -62 0 -13 -12 -23 -42 -31 -88 -26 -83 -21 -190 -215
-16 -30 -32 -166 -19 -164 22 3 51 -3 47 -10 -3 -4 38 -7 90 -6 52 1 94 0 94
-3 0 -10 -24 -50 -43 -71 l-20 -22 918 0 918 0 -7 54 c-7 61 -32 127 -52 139
-11 6 -13 19 -9 45 5 29 4 34 -5 22 -10 -13 -11 -12 -5 5 9 28 9 24 0 83 -4
30 -11 48 -15 42 -11 -17 -22 4 -17 32 2 13 2 17 0 10 -7 -21 -19 -13 -21 14
-1 15 -8 34 -15 42 -9 13 -9 14 1 8 6 -4 12 -2 12 3 0 6 -4 11 -10 11 -5 0
-10 9 -10 19 0 22 -11 27 -65 26 l-40 0 -3 -45 c-3 -33 -6 -40 -13 -30 -8 11
-9 2 -6 -30 3 -25 3 -36 0 -26 -4 16 -9 12 -23 -20 -10 -21 -14 -41 -9 -42 5
-2 9 -8 9 -13 0 -6 -5 -7 -10 -4 -6 4 -24 0 -40 -9 -16 -8 -43 -17 -58 -21
-26 -5 -32 -15 -57 -89 -15 -46 -29 -99 -30 -117 -2 -18 -8 -35 -14 -37 -6 -2
-26 -14 -46 -28 -44 -29 -71 -31 -87 -4 -13 20 -68 29 -68 11 0 -5 -11 -11
-25 -13 -14 -3 -25 -2 -25 2 0 3 -16 5 -35 4 -19 -2 -35 1 -35 6 0 6 -8 10
-18 10 -22 0 -72 -22 -72 -32 0 -5 -26 -7 -57 -6 l-58 1 50 6 c28 4 -21 6
-108 6 -86 0 -157 2 -157 5 0 3 -12 7 -26 8 -15 1 -34 8 -42 15 -13 9 -14 9
-8 0 4 -7 6 -13 4 -14 -2 0 -29 -2 -60 -5 l-58 -6 4 30 c4 36 19 58 69 101 20
18 37 39 37 47 0 7 11 26 25 41 42 47 45 52 45 63 0 5 8 11 18 12 9 0 22 2 27
3 6 2 15 3 20 4 6 1 4 5 -3 9 -18 12 30 58 68 66 17 3 30 12 30 20 0 19 56 50
76 42 8 -3 14 0 14 7 0 8 3 8 9 -2 6 -9 10 -10 12 -2 3 7 14 13 26 13 12 1 19
7 16 15 -3 8 3 13 13 14 11 0 14 3 7 6 -15 5 -18 59 -4 67 4 3 11 18 14 33 4
17 18 35 37 45 17 10 29 22 25 27 -13 22 45 39 165 51 71 7 128 17 132 23 11
17 10 47 -2 47 -5 0 -10 7 -10 15 0 8 -6 15 -14 15 -7 0 -16 11 -18 25 -3 14
-2 25 1 25 4 0 8 15 9 33 1 19 6 47 11 63 4 16 6 58 3 94 -11 136 1 238 35
303 12 25 19 28 51 25 34 -3 37 -1 40 25 2 16 -5 39 -18 57 -21 30 -97 70
-132 70 -30 0 -81 -25 -133 -64 -49 -38 -80 -43 -98 -15 -7 12 2 35 41 95 27
43 62 97 76 120 14 22 29 59 35 83 20 90 93 155 218 196 63 20 159 13 238 -16
28 -11 59 -19 71 -19 11 0 56 -17 100 -38 43 -21 91 -42 105 -45 39 -10 222
-178 254 -234 16 -26 70 -91 121 -145 50 -53 113 -128 138 -165 26 -37 68 -97
93 -133 25 -36 54 -83 64 -105 10 -22 23 -47 28 -55 6 -8 24 -46 42 -85 37
-83 87 -160 124 -195 l27 -25 428 -5 428 -5 27 -27 c38 -38 58 -24 80 53 19
68 62 142 79 136 6 -2 12 -13 14 -25 5 -34 28 -40 178 -48 76 -3 146 -10 154
-14 8 -4 87 -8 174 -9 179 -3 169 0 356 -109 50 -29 115 -62 144 -73 68 -25
78 -44 28 -53 -42 -7 -70 -22 -59 -32 3 -4 26 1 50 10 76 29 191 15 260 -32
23 -16 62 -36 87 -46 58 -23 70 -33 70 -61 0 -12 7 -28 15 -35 8 -7 15 -21 15
-31 0 -16 -8 -19 -46 -19 -51 0 -52 -14 0 -24 19 -4 45 -15 59 -26 14 -11 30
-20 36 -20 6 0 17 -13 25 -28 8 -16 21 -34 30 -41 8 -7 18 -37 22 -67 3 -30
10 -57 15 -60 15 -9 10 -22 -8 -27 -10 -3 28 -5 85 -6 100 -1 104 0 126 26 22
25 25 26 55 14 17 -8 31 -20 31 -27 0 -12 78 -14 475 -14 l475 0 0 256 0 255
-22 -7 c-12 -3 -42 -6 -67 -5 -25 0 -73 -4 -106 -11 -33 -6 -179 -12 -325 -14
-272 -2 -351 -7 -393 -23 -32 -12 -107 -2 -130 17 -20 18 -35 9 -18 -12 6 -7
18 -39 26 -69 8 -30 32 -83 55 -118 58 -89 90 -161 84 -184 -4 -17 -14 -20
-63 -20 -53 0 -60 3 -85 32 -14 17 -42 66 -61 108 -94 206 -212 363 -310 412
-27 14 -63 36 -78 49 -16 13 -34 24 -41 24 -7 0 -39 16 -72 36 -85 52 -232
127 -284 147 -90 33 -247 67 -360 77 -64 5 -154 17 -200 25 -47 9 -132 21
-190 27 -90 9 -113 8 -160 -5 -30 -9 -57 -14 -59 -11 -12 12 20 40 65 57 90
34 141 39 269 26 106 -10 131 -9 215 7 129 24 164 23 194 -5 30 -28 153 -72
182 -65 12 3 27 -1 35 -9 23 -23 51 -34 114 -47 33 -6 96 -30 140 -52 81 -40
148 -67 220 -86 23 -7 64 -33 95 -60 l55 -48 470 2 c537 3 494 2 476 13 -9 6
-4 8 15 8 16 0 23 -2 16 -4 -19 -7 -3 -23 23 -23 18 0 23 4 19 15 -5 13 -1 12
26 -2 25 -14 34 -15 37 -5 3 6 8 10 12 8 4 -3 34 -7 68 -11 53 -5 61 -4 65 12
3 10 4 22 4 27 -1 5 9 12 22 17 l22 8 0 376 c0 327 -2 375 -15 375 -8 0 -15 9
-15 20 0 11 7 23 15 26 13 5 15 50 15 314 l0 308 -62 6 c-35 3 -144 7 -243 8
-99 1 -193 5 -210 8 -51 10 110 20 322 20 l193 0 0 134 c0 110 -3 137 -16 151
-13 12 -19 13 -30 4 -18 -15 -92 -15 -107 0 -16 16 -40 14 -34 -4 4 -8 2 -17
-3 -20 -15 -9 -60 25 -60 45 0 10 -9 21 -19 25 -27 8 -71 -5 -71 -21 0 -8 -9
-14 -19 -14 -10 0 -22 -7 -25 -16 -5 -13 -14 -15 -39 -10 -17 4 -101 8 -185 9
l-153 2 -22 29 c-22 27 -26 28 -58 18 -19 -6 -53 -10 -76 -10 -24 0 -49 -5
-57 -12 -12 -9 -23 -9 -52 0 -20 7 -54 10 -75 7 -24 -3 -42 0 -49 8 -5 7 -44
18 -85 25 -77 13 -105 7 -105 -25 0 -10 -12 -10 -57 -1 -48 10 -60 17 -73 41
-8 15 -27 40 -43 54 -41 39 -25 51 75 55 70 3 92 0 116 -15 25 -15 44 -17 109
-13 93 7 103 8 126 18 10 5 20 6 24 3 3 -3 16 7 30 24 25 29 66 39 79 18 3 -6
17 -8 33 -4 14 4 35 9 46 11 11 2 40 7 65 12 25 5 55 13 66 20 12 6 24 9 27 6
14 -14 67 9 79 34 8 15 18 27 23 28 6 0 17 3 25 7 8 3 22 8 30 10 8 3 3 6 -12
6 -14 1 -28 -4 -30 -11 -3 -9 -6 -9 -12 0 -5 8 3 14 24 18 20 5 29 11 26 20
-8 21 11 26 29 8 8 -9 13 -24 10 -34 -4 -12 1 -19 17 -23 25 -7 36 4 45 46 3
15 10 27 14 27 5 0 17 16 26 35 15 32 20 35 59 35 24 0 45 -4 49 -10 3 -5 12
-7 19 -4 8 3 34 -4 59 -15 25 -12 52 -19 59 -16 7 3 47 7 88 9 41 2 78 4 83 5
4 1 7 90 7 200 l0 198 -87 6 c-49 4 -207 9 -353 13 -321 7 -353 9 -358 22 -4
13 80 24 160 22 157 -5 348 0 348 11 0 22 -70 37 -197 42 -102 4 -135 3 -140
-7 -12 -20 -36 -25 -53 -10 -12 10 -30 11 -75 5 -34 -5 -73 -4 -90 1 -16 5
-74 11 -128 12 -103 4 -118 10 -143 58 -9 17 -23 28 -37 29 -20 1 -20 2 -2 6
46 10 51 13 35 23 -8 6 -27 10 -42 10 -21 0 -28 -5 -28 -20 0 -13 -9 -21 -27
-26 -16 -3 -39 -10 -52 -15 -30 -12 -34 -8 -46 49 l-10 47 -59 2 c-64 2 -109
-12 -85 -28 10 -6 8 -9 -10 -9 -13 0 -34 -11 -47 -25 -31 -34 -67 -41 -109
-21 -32 15 -35 21 -33 52 1 22 -3 39 -12 44 -18 12 -19 11 48 13 40 2 57 -2
69 -15 22 -25 29 -23 70 17 43 42 62 44 92 9 19 -22 27 -25 62 -19 25 4 45 3
54 -5 10 -9 16 -7 23 6 5 10 20 16 36 15 14 -1 37 -2 51 -2 14 1 35 1 48 1 12
1 57 -4 100 -10 65 -8 82 -8 101 5 18 12 37 14 80 9 64 -8 71 -14 71 -64 0
-31 3 -35 29 -38 26 -3 28 -1 24 23 -4 19 -1 28 11 33 25 9 31 23 31 80 l0 54
29 -7 c17 -3 39 -1 50 5 26 14 27 2 4 -63 -23 -63 -6 -85 27 -33 17 29 28 36
54 36 18 0 37 -5 44 -12 9 -9 15 -9 24 0 7 7 41 12 80 12 l69 0 -7 38 c-4 20
-8 39 -10 41 -2 2 -62 7 -133 12 -72 5 -139 14 -150 21 -15 9 -25 9 -46 0 -14
-7 -48 -12 -75 -12 -26 0 -50 -5 -52 -10 -2 -6 -67 -12 -163 -15 -142 -5 -161
-7 -181 -26 -20 -19 -27 -19 -105 -9 -46 5 -135 10 -197 10 -105 0 -315 14
-388 25 -17 3 -44 17 -58 30 -15 14 -39 28 -54 31 -15 4 -33 11 -39 17 -7 5
-41 12 -76 14 -58 5 -69 3 -123 -27 -32 -18 -75 -44 -95 -57 -29 -19 -43 -22
-81 -17 -39 5 -48 11 -53 31 -5 20 -10 24 -28 18 -12 -4 -36 -8 -53 -9 -28 -2
-30 0 -26 26 2 15 -1 35 -8 43 -20 24 -5 30 76 29 54 -1 79 -5 92 -17 22 -20
96 -22 222 -6 93 11 110 20 90 44 -11 13 -7 15 26 15 54 0 84 10 84 26 0 10
15 14 58 13 41 0 51 -3 37 -9 l-20 -9 20 -1 c11 -1 0 -7 -24 -12 -34 -8 -41
-12 -29 -19 10 -5 14 -19 12 -38 -3 -29 -1 -30 51 -41 35 -7 85 -9 137 -4 46
5 87 7 92 5 5 -1 41 3 80 10 39 7 96 12 127 10 41 -2 59 2 68 13 11 13 11 19
1 31 -9 11 -10 19 -3 26 15 15 315 12 324 -3 4 -6 12 -7 20 -2 8 5 50 9 94 11
77 2 111 -5 260 -52 36 -12 42 -11 58 6 10 10 28 19 40 19 33 0 67 -11 67 -22
0 -5 -6 -6 -12 -2 -7 4 -10 4 -6 -1 11 -12 68 -17 68 -6 0 5 -8 12 -17 14 -16
4 -16 5 1 6 15 1 16 4 6 15 -6 8 -19 12 -28 9 -16 -5 -16 -5 -1 11 11 12 38
20 78 23 53 5 66 3 91 -16 23 -16 43 -21 95 -21 37 0 76 5 88 12 12 6 34 11
50 10 l27 -2 0 200 0 200 -39 0 c-49 0 -71 8 -71 26 0 16 -4 17 -90 14 -36 -1
-70 -6 -77 -11 -6 -6 -56 -10 -110 -9 -54 1 -135 -2 -180 -5 -77 -6 -81 -5
-76 13 6 23 -28 33 -89 25 -44 -6 -55 -17 -38 -38 11 -13 6 -15 -27 -15 -22 0
-65 -5 -96 -11 -31 -6 -63 -9 -72 -5 -14 5 -14 8 1 32 16 23 22 25 63 20 25
-4 53 -2 61 4 11 7 2 10 -36 10 -28 0 -59 6 -70 15 -10 8 -28 15 -39 15 -18 0
-20 -7 -20 -52 l0 -53 -35 3 c-63 5 -71 3 -105 -22 -25 -19 -32 -31 -28 -47 5
-19 3 -21 -24 -15 -51 12 -133 9 -149 -5 -13 -10 -12 -15 7 -35 12 -12 27 -20
34 -18 7 3 31 1 52 -5 42 -12 103 1 103 21 0 6 30 7 80 2 70 -6 83 -4 93 11
17 23 63 17 59 -7 -2 -10 3 -18 11 -18 19 0 27 -22 20 -49 -7 -26 22 -39 49
-22 15 9 20 9 24 -3 9 -23 -4 -36 -35 -36 -16 0 -48 -7 -71 -15 -34 -12 -62
-13 -134 -7 -114 11 -318 5 -354 -10 -27 -11 -33 -12 -112 -8 -25 1 -57 -2
-72 -8 -14 -6 -51 -8 -80 -5 -42 4 -61 1 -80 -11 -16 -10 -38 -15 -54 -12 -16
2 -59 5 -96 5 -59 1 -66 3 -61 20 7 26 -18 30 -175 26 -107 -2 -140 0 -158 12
-13 8 -28 12 -35 8 -6 -4 -28 -3 -48 3 -20 6 -48 13 -62 16 -23 5 -27 12 -31
47 -2 22 0 43 4 45 18 11 -5 24 -52 30 l-50 7 0 43 c0 23 5 46 10 49 8 5 7 12
-2 23 -11 13 -10 15 5 9 11 -4 17 -2 17 7 0 15 -30 44 -30 30 -1 -17 -40 70
-40 89 0 21 0 21 125 -7 66 -14 115 -13 115 3 0 5 -33 14 -72 21 -40 7 -77 16
-83 20 -5 4 -21 4 -35 0 -30 -8 -76 4 -100 25 -18 16 -134 45 -186 45 -16 0
-39 -7 -50 -15 -10 -8 -28 -15 -38 -15 -10 0 -38 -10 -62 -22 -39 -19 -44 -25
-44 -55 0 -19 -8 -50 -18 -71 -16 -31 -18 -56 -15 -157 2 -66 1 -130 -2 -142
-7 -30 -51 -32 -60 -3 -4 11 -15 20 -26 20 -25 0 -149 71 -149 85 0 5 -12 15
-26 22 -25 12 -26 11 -19 -15 4 -15 13 -35 22 -44 23 -25 6 -41 -36 -34 -88
14 -136 27 -166 46 -21 13 -50 20 -82 20 -41 0 -55 5 -79 27 -16 15 -44 33
-62 39 -31 11 -33 10 -48 -18 -9 -17 -13 -41 -10 -56 7 -32 0 -43 -37 -60 -32
-14 -69 -16 -82 -4 -21 19 -97 42 -119 36 -13 -3 -28 -16 -35 -30 -14 -32 -36
-30 -70 6 -15 17 -34 29 -42 27 -8 -2 -12 -2 -9 0 3 2 4 19 2 38 -5 38 -25 47
-41 16 -7 -13 -21 -18 -48 -18 -21 0 -48 -3 -58 -7 -14 -4 -24 0 -33 14 -11
18 -10 20 12 20 14 0 28 5 31 10 3 6 26 10 50 10 40 0 44 2 47 28 3 26 6 27
51 25 26 -1 54 -7 62 -13 11 -9 15 -9 15 -1 0 6 16 11 35 11 33 0 38 -4 55
-42 11 -24 20 -51 20 -60 0 -10 6 -18 14 -18 13 0 25 36 30 95 2 17 6 41 11
54 11 34 -7 41 -113 41 -108 0 -190 20 -229 56 -14 13 -33 24 -41 24 -10 0
-13 7 -10 23 4 23 4 23 -44 14 -33 -7 -46 -13 -39 -20 6 -6 0 -20 -20 -39 -29
-30 -65 -34 -63 -8 5 61 21 76 78 78 22 1 62 8 91 16 28 9 66 15 85 16 19 0
51 0 70 1 55 2 57 2 205 -10 141 -11 163 -9 240 24 l30 13 -30 12 c-16 7 -52
15 -80 19 -40 5 -20 8 95 14 87 4 159 3 180 -3 20 -5 107 -7 205 -4 94 3 189
6 213 7 25 1 42 6 42 13 0 7 -15 12 -37 11 -95 -2 -739 7 -750 11 -14 4 -17
30 -7 56 7 18 69 23 79 6 4 -6 13 -7 23 -1 19 10 560 10 577 0 6 -4 26 -1 45
7 24 9 29 13 15 14 -19 1 -475 8 -663 9 l-83 1 3 38 3 37 85 2 c47 1 90 -3 97
-8 7 -7 14 -6 18 1 10 17 365 6 376 -11 7 -10 11 -11 17 -3 4 7 47 14 102 17
52 2 96 9 97 14 4 11 -48 12 -542 16 l-249 2 -7 25 c-6 23 -7 23 -8 3 -2 -42
-21 -35 -21 8 0 34 2 40 14 30 10 -9 16 -9 21 -1 4 7 19 9 37 5 32 -7 107 -7
466 -1 118 3 216 7 220 10 3 3 -5 6 -17 6 -12 0 -131 3 -264 6 -207 5 -298 6
-326 2 -3 0 -32 0 -65 1 l-58 1 4 35 4 35 -237 0 -238 0 -3 -32 c-2 -26 -8
-33 -25 -34 -20 -1 -23 4 -23 32 l0 34 -639 0 -639 0 -6 -25 c-5 -20 -13 -25
-39 -26 -29 -1 -30 -2 -7 -8 44 -12 3 -24 -114 -32 -61 -4 -133 -14 -161 -22
l-50 -15 87 -3 c64 -3 89 -1 93 9 2 7 21 12 43 12 32 0 41 -5 50 -25 6 -14 9
-31 6 -39 -4 -10 3 -17 20 -22 36 -9 62 2 47 19 -8 10 -7 17 1 25 24 24 68 1
46 -25 -15 -19 -4 -27 20 -14 14 8 19 17 15 32 -4 16 -2 20 8 17 8 -3 13 -15
12 -27 -2 -15 5 -24 24 -32 31 -12 43 -26 43 -51 0 -11 -8 -18 -19 -18 -20 0
-40 -19 -38 -35 3 -13 -68 -23 -169 -24 -44 -1 -84 -5 -90 -10 -5 -6 -29 -12
-54 -14 -25 -3 44 -4 152 -3 189 2 197 2 200 -17 2 -11 11 -25 20 -31 13 -8
23 -5 43 14 25 23 27 23 103 12 77 -12 236 -17 497 -14 141 1 162 -4 150 -37
-7 -17 23 -40 53 -41 12 0 22 -5 22 -11 0 -5 5 -7 10 -4 18 11 11 -11 -10 -30
-17 -15 -45 -19 -186 -23 -147 -4 -168 -3 -176 12 -5 9 -20 16 -34 16 -17 0
-23 4 -18 12 5 8 -9 9 -56 5 -67 -7 -80 -16 -80 -57 0 -32 22 -46 88 -55 29
-4 52 -10 52 -15 0 -4 9 -10 21 -13 15 -4 20 -12 17 -29 -2 -19 -8 -23 -38
-21 -19 1 -36 6 -38 12 -5 15 -67 14 -79 -1 -6 -7 -13 -30 -16 -50 -5 -32 -2
-40 15 -49 20 -11 20 -13 5 -24 -27 -19 -20 -25 27 -25 36 0 47 -5 61 -26 l17
-27 -33 7 c-45 9 -47 8 -104 -4 -54 -12 -110 -6 -153 16 -26 13 -28 17 -26 69
1 30 -1 55 -4 55 -13 0 -37 -65 -38 -103 0 -21 -8 -45 -16 -54 -15 -15 -19
-13 -49 16 -29 29 -36 32 -73 25 -22 -3 -58 -13 -80 -20 -21 -8 -53 -14 -72
-14 -31 0 -33 2 -36 37 -4 53 -32 56 -72 9 l-31 -36 -130 -11 c-130 -10 -175
-7 -175 11 0 6 -10 10 -22 10 -12 0 -30 8 -40 17 -16 15 -23 15 -54 4 -43 -15
-48 -12 -46 34 1 28 -2 35 -18 35 -13 0 -18 -5 -14 -15 7 -17 -11 -21 -21 -4
-10 15 2 50 25 79 20 25 20 25 36 5 15 -20 15 -20 35 5 13 17 19 38 17 65 -2
32 1 42 20 51 30 15 161 7 181 -10 18 -15 73 -28 65 -15 -3 5 0 9 5 9 25 0 8
27 -23 38 -36 13 -98 82 -74 82 7 0 19 4 27 9 12 8 12 12 2 25 -11 13 -8 17
21 29 l33 14 -47 7 c-32 5 -45 11 -42 20 6 17 -142 10 -206 -9 -25 -8 -62 -17
-82 -21 -62 -10 -63 -15 -64 -238 -1 -255 -5 -276 -50 -301 -18 -10 -34 -24
-34 -32 0 -7 -10 -17 -23 -22 -32 -12 -46 -46 -49 -116 -3 -59 -3 -60 -34 -63
-29 -3 -32 0 -37 35 -4 21 -7 52 -7 70 0 49 -16 84 -36 76 -11 -4 -15 -15 -11
-37 4 -30 -11 -56 -34 -56 -6 0 -27 9 -45 21 -26 16 -43 19 -72 14 -50 -8 -89
8 -110 45 -9 16 -20 30 -24 30 -4 0 -24 18 -45 39 -35 37 -60 103 -80 208 -3
20 -13 35 -24 38 -23 8 -91 -13 -84 -25 6 -10 -20 -21 -64 -27 -19 -2 -42 -8
-52 -13 -10 -6 -43 -10 -74 -10 -43 0 -64 6 -91 24 -26 18 -42 22 -62 17 -26
-7 -27 -11 -32 -87 -6 -83 -16 -116 -30 -94 -11 17 -30 3 -30 -21 0 -32 -17
-13 -25 28 -11 59 -22 384 -24 656 l-1 247 -114 0 -114 0 1 -517z m2387 497
c0 -5 -4 -10 -10 -10 -5 0 -10 5 -10 10 0 6 5 10 10 10 6 0 10 -4 10 -10z
m996 -59 c3 -34 2 -69 -2 -79 -9 -19 -22 86 -15 126 6 35 11 20 17 -47z m701
22 c-3 -10 -5 -4 -5 12 0 17 2 24 5 18 2 -7 2 -21 0 -30z m-1607 -73 c0 -16
-4 -31 -9 -34 -11 -7 -25 49 -16 64 11 17 25 0 25 -30z m391 -2 c1 -24 3 -80
5 -126 2 -53 0 -81 -6 -77 -6 3 -10 15 -10 26 0 11 -4 28 -10 38 -11 21 -30
162 -23 174 2 4 13 7 24 7 16 0 19 -7 20 -42z m60 15 c6 -15 8 -35 6 -45 -3
-10 -1 -18 4 -18 5 0 9 -36 9 -80 0 -63 -3 -82 -15 -87 -9 -3 -19 -2 -23 1
-12 12 -14 256 -2 256 6 0 15 -12 21 -27z m685 -18 c-8 -32 -36 -33 -36 -1 0
15 7 26 18 28 23 6 25 3 18 -27z m-221 -87 c9 -60 2 -141 -12 -145 -12 -4 -21
90 -15 155 5 45 20 40 27 -10z m203 -14 c-2 -22 -7 -39 -13 -39 -12 0 -19 60
-10 83 10 28 27 -3 23 -44z m492 5 c0 -28 -4 -39 -15 -39 -11 0 -15 11 -15 38
0 21 3 42 6 45 14 13 24 -6 24 -44z m-1465 -40 c0 -34 -4 -44 -17 -47 -14 -3
-18 4 -18 31 0 20 3 43 6 52 12 30 29 9 29 -36z m195 -55 c0 -14 -4 -22 -10
-19 -5 3 -10 17 -10 31 0 14 4 22 10 19 6 -3 10 -17 10 -31z m767 14 c-3 -8
-6 -5 -6 6 -1 11 2 17 5 13 3 -3 4 -12 1 -19z m501 -16 c3 -27 0 -32 -17 -32
-16 0 -21 6 -21 28 0 53 33 56 38 4z m-50 -68 c14 -4 22 -14 22 -27 0 -11 -3
-17 -7 -14 -3 4 -12 2 -19 -4 -16 -13 -174 -22 -174 -9 0 6 -41 9 -102 8 -115
-2 -223 7 -283 25 -34 10 -3 13 215 17 140 3 271 6 290 8 19 1 45 -1 58 -4z
m-2213 -84 c-3 -5 -10 -10 -16 -10 -5 0 -9 5 -9 10 0 6 7 10 16 10 8 0 12 -4
9 -10z m1108 -47 c-7 -2 -19 -2 -25 0 -7 3 -2 5 12 5 14 0 19 -2 13 -5z m687
-9 c0 -8 -4 -12 -10 -9 -5 3 -10 10 -10 16 0 5 5 9 10 9 6 0 10 -7 10 -16z
m-367 -11 c-7 -2 -19 -2 -25 0 -7 3 -2 5 12 5 14 0 19 -2 13 -5z m202 -123 c6
-5 29 -6 53 -3 23 3 42 1 42 -4 0 -5 -10 -29 -21 -53 -18 -37 -20 -54 -15
-107 7 -72 3 -87 -22 -74 -9 5 -52 19 -94 32 l-77 23 -7 44 c-4 27 -2 48 5 55
6 6 11 28 11 49 0 22 6 40 15 45 17 10 95 5 110 -7z m-2647 -51 c3 -11 2 -11
-6 -1 -7 10 -11 10 -22 -3 -16 -19 -36 -19 -43 -1 -4 10 2 16 16 18 35 6 51 2
55 -13z m2107 1 c-3 -5 3 -15 15 -22 27 -17 26 -54 -2 -62 -38 -10 -48 -7 -48
15 0 11 -5 29 -10 40 -14 25 -5 39 26 39 14 0 22 -4 19 -10z m-2167 -37 c-10
-2 -26 -2 -35 0 -10 3 -2 5 17 5 19 0 27 -2 18 -5z m2833 -81 c7 -19 5 -22
-17 -22 -20 0 -25 4 -20 16 3 9 6 20 6 26 0 17 23 3 31 -20z m172 -14 c-2 -5
-8 -6 -13 -3 -4 3 -6 -5 -2 -17 3 -13 1 -19 -5 -15 -7 5 -9 -1 -5 -15 4 -18 2
-20 -13 -14 -11 4 -38 9 -60 13 -36 5 -41 8 -43 34 -1 16 3 29 8 29 6 0 8 -4
5 -10 -7 -12 8 -14 19 -2 18 18 70 28 92 18 12 -6 20 -14 17 -18z m-2193 8 c0
-8 -4 -17 -9 -21 -12 -7 -24 12 -16 25 9 15 25 12 25 -4z m1377 -6 c1 -11 -4
-20 -13 -20 -17 0 -18 12 -2 28 7 7 12 12 13 12 0 0 1 -9 2 -20z m188 -30 c-3
-5 -28 -10 -55 -10 -27 0 -52 5 -55 10 -4 6 17 10 55 10 38 0 59 -4 55 -10z
m1680 -40 c53 0 73 -10 67 -32 -6 -24 -35 -36 -85 -36 -37 0 -48 10 -25 24 7
4 8 3 4 -4 -4 -7 -2 -12 3 -12 16 0 13 20 -3 26 -17 7 -28 32 -20 46 4 6 10 6
17 -1 6 -6 25 -11 42 -11z m2815 -5 c0 -16 -35 -21 -44 -6 -8 12 4 21 26 21
10 0 18 -7 18 -15z m84 -11 c9 -3 13 -10 10 -15 -8 -14 -40 -11 -54 6 -10 12
-9 15 8 15 11 0 27 -3 36 -6z m-3748 -42 c6 -4 16 -17 23 -29 6 -13 19 -23 29
-23 16 -1 16 -1 0 -11 -35 -20 -20 -32 30 -24 61 9 92 9 175 1 46 -5 67 -4 67
3 0 6 5 11 11 11 5 0 7 -4 4 -10 -4 -6 13 -10 44 -10 30 0 51 -5 54 -12 3 -10
65 -13 263 -14 318 -2 299 -1 318 -20 19 -18 5 -54 -20 -54 -21 0 -86 -35
-105 -56 -21 -24 -32 -114 -14 -114 6 0 17 11 23 25 6 14 16 26 22 26 5 1 15
2 21 3 5 0 18 12 29 25 l18 25 -5 -26 c-5 -28 11 -45 30 -31 7 5 28 14 48 21
33 11 40 10 82 -13 52 -29 94 -44 151 -51 22 -3 49 -10 60 -16 12 -6 23 -9 25
-7 3 2 8 -10 13 -28 6 -24 12 -31 25 -26 10 4 14 2 10 -4 -5 -7 0 -9 12 -6 16
4 20 -3 26 -47 5 -38 10 -49 17 -39 6 10 7 6 3 -11 -4 -14 -11 -29 -16 -34
-14 -15 -10 -99 5 -118 7 -10 20 -18 29 -18 16 0 25 -45 30 -146 1 -23 5 -40
10 -37 4 2 7 -2 7 -11 0 -8 -4 -16 -9 -18 -5 -1 -12 -21 -15 -43 -4 -21 -11
-42 -17 -45 -5 -4 -15 -36 -21 -72 l-11 -66 -66 -18 c-52 -15 -98 -19 -219
-18 -163 1 -181 6 -185 51 -1 16 -10 22 -35 27 -37 6 -72 31 -72 53 0 7 -7 13
-15 13 -9 0 -19 8 -22 18 -4 9 -13 21 -20 25 -7 5 -11 12 -8 18 9 14 37 11 57
-8 11 -10 18 -12 18 -4 0 6 24 33 52 60 29 27 49 53 45 57 -4 4 -17 -2 -30
-14 -25 -23 -62 -33 -39 -10 19 19 14 31 -9 25 -12 -3 -32 0 -46 6 -25 11 -25
12 -19 100 3 49 11 106 17 128 13 40 5 65 -11 39 -6 -8 -10 -25 -10 -37 0 -13
-4 -23 -10 -23 -15 0 -21 42 -21 158 0 42 -4 62 -12 62 -9 0 -12 -27 -11 -98
1 -53 3 -104 5 -112 5 -22 -38 -148 -60 -176 -11 -14 -17 -33 -14 -44 4 -17 1
-20 -23 -19 -16 0 -58 10 -94 22 -64 22 -65 22 -63 57 5 64 35 214 54 268 10
29 19 63 19 76 0 28 25 92 40 101 36 22 -23 35 -63 13 -12 -6 -65 -12 -118
-12 -80 -1 -101 -4 -118 -20 -11 -10 -20 -21 -19 -25 3 -30 -4 -61 -15 -61 -8
0 -34 -13 -58 -30 -42 -28 -49 -30 -151 -30 -109 0 -150 6 -128 20 15 9 4 30
-16 30 -8 0 -14 -9 -14 -20 0 -22 -8 -24 -42 -11 -17 6 -24 18 -26 42 -9 113
-67 199 -107 160 -6 -5 -29 -11 -53 -14 -23 -2 -51 -12 -61 -21 -25 -23 -38
-20 -55 12 -21 41 -42 55 -89 59 -23 2 -60 9 -82 15 -22 6 -62 10 -88 9 -73
-1 -117 29 -62 43 14 4 25 11 25 16 0 11 -40 13 -65 4 -13 -5 -14 -8 -3 -15
10 -7 9 -9 -5 -9 -10 0 -25 7 -34 16 -10 9 -29 14 -52 12 -32 -3 -36 -6 -37
-33 -1 -16 -6 -50 -12 -75 -6 -25 -12 -76 -12 -114 0 -95 -11 -106 -107 -106
-43 0 -89 6 -110 15 -19 8 -44 15 -55 15 -10 0 -32 10 -48 22 -32 23 -53 16
-66 -24 -6 -19 -13 -20 -142 -16 -97 2 -137 7 -140 16 -2 6 -10 12 -17 12 -8
0 -18 6 -22 14 -4 8 -17 14 -28 13 -12 -1 -21 5 -23 18 -2 11 -13 30 -24 41
-13 15 -16 24 -8 29 7 4 4 17 -10 41 -12 18 -19 38 -15 44 3 5 0 10 -7 10 -10
0 -10 2 1 9 10 7 11 13 2 30 -15 26 -27 27 -41 1 -9 -16 -21 -20 -63 -20 -59
0 -97 8 -97 21 0 12 32 19 110 23 36 3 66 5 68 6 1 2 6 3 11 4 28 4 19 16 -11
16 -20 0 -53 8 -74 17 l-39 17 30 4 c186 21 180 22 161 -35 -14 -44 40 -121
77 -108 18 8 41 -20 33 -40 -3 -9 -2 -13 4 -10 6 3 10 13 10 21 0 8 5 12 10 9
14 -9 82 -9 108 0 12 3 22 14 22 23 0 53 71 84 123 54 23 -14 31 -14 48 -4 18
11 24 11 38 -2 10 -9 24 -16 32 -16 8 0 20 -5 26 -11 16 -16 43 -3 43 20 0 14
8 21 27 23 44 5 41 34 -4 41 -21 4 -60 12 -88 18 -56 13 -154 13 -170 -1 -11
-9 -29 -1 -79 34 -21 15 -29 16 -41 6 -8 -7 -15 -22 -15 -34 0 -11 -4 -27 -9
-35 -14 -21 -59 1 -63 31 -3 20 -10 24 -53 28 l-50 5 35 9 c19 5 39 8 43 7 4
-1 17 4 29 10 26 14 105 14 142 0 15 -6 64 -12 109 -13 64 -1 88 2 109 16 41
27 130 31 247 11 70 -12 120 -15 155 -10 89 14 259 13 286 0 14 -7 34 -9 45
-5 11 4 54 0 95 -8 74 -15 148 -12 179 8 10 6 14 23 13 51 -2 32 0 40 11 36 8
-3 20 -1 28 4 17 11 80 12 95 1z m1144 -17 c0 -18 -4 -23 -15 -19 -25 10 -19
33 13 43 1 1 2 -10 2 -24z m-3387 8 c-7 -2 -19 -2 -25 0 -7 3 -2 5 12 5 14 0
19 -2 13 -5z m247 -30 c0 -9 8 -25 17 -35 15 -17 15 -20 -5 -38 -23 -21 -67
-26 -92 -10 -11 7 -5 8 19 3 26 -5 33 -3 29 8 -3 8 -11 13 -18 11 -7 -2 -33 7
-59 19 -25 12 -70 26 -100 30 -29 4 -58 12 -64 18 -8 8 30 11 131 11 126 0
142 -2 142 -17z m4015 -3 c14 -6 -2 -9 -50 -8 -50 0 -63 2 -45 8 33 11 70 11
95 0z m955 0 c0 -5 -7 -10 -16 -10 -8 0 -12 5 -9 10 3 6 10 10 16 10 5 0 9 -4
9 -10z m-1522 -74 c3 -37 -10 -67 -24 -53 -3 3 -9 27 -12 53 -4 41 -3 46 14
42 14 -2 20 -13 22 -42z m1253 16 c-7 -2 -18 1 -23 6 -8 8 -4 9 13 5 13 -4 18
-8 10 -11z m-4563 -31 c10 -6 7 -10 -13 -15 -30 -8 -65 0 -65 15 0 11 60 12
78 0z m620 -54 c2 -12 -3 -17 -17 -17 -12 0 -21 6 -21 13 0 31 32 34 38 4z
m455 -47 c-6 -22 -18 -26 -28 -10 -8 13 3 30 20 30 8 0 11 -7 8 -20z m-1450 0
c7 0 3 -7 -7 -15 -14 -11 -23 -12 -33 -4 -16 14 -6 32 14 25 8 -3 20 -6 26 -6z
m-360 -150 c8 -29 -18 -46 -49 -31 -14 6 -30 9 -35 6 -5 -4 -17 -1 -26 4 -16
9 -14 10 8 11 15 0 29 7 33 15 8 23 63 19 69 -5z m-1718 -19 c-3 -6 -11 -11
-17 -11 -6 0 -6 6 2 15 14 17 26 13 15 -4z m6633 -2 c-2 -6 -8 -10 -13 -10 -5
0 -11 4 -13 10 -2 6 4 11 13 11 9 0 15 -5 13 -11z m372 -4 c0 -8 -9 -15 -20
-15 -20 0 -26 11 -13 23 12 13 33 7 33 -8z m-3480 -56 c0 -8 17 -10 49 -7 56
6 81 -4 81 -33 0 -26 -31 -36 -94 -32 -96 6 -111 16 -86 64 11 20 50 27 50 8z
m460 -9 c0 -5 -4 -10 -10 -10 -5 0 -10 5 -10 10 0 6 5 10 10 10 6 0 10 -4 10
-10z m1826 -37 c-8 -8 -12 -3 -21 27 l-7 25 17 -23 c9 -13 14 -26 11 -29z
m1087 5 c-2 -5 -3 -17 -3 -28 0 -15 -7 -20 -29 -20 -28 0 -61 22 -61 40 0 5
10 10 23 12 36 6 72 4 70 -4z m47 8 c0 -3 -4 -8 -10 -11 -5 -3 -10 -1 -10 4 0
6 5 11 10 11 6 0 10 -2 10 -4z m-950 -93 c-9 -15 -10 -12 -6 16 3 18 7 41 8
50 0 9 3 1 5 -16 2 -18 -1 -41 -7 -50z m1162 65 c-9 -9 -15 -9 -24 0 -9 9 -7
12 12 12 19 0 21 -3 12 -12z m-4985 -54 c16 -25 18 -26 92 -18 42 4 90 8 106
9 17 1 45 2 63 3 37 2 43 18 10 25 -13 2 -1 5 26 6 44 1 48 -1 31 -12 -13 -10
-15 -16 -6 -21 6 -4 19 -2 27 5 12 10 13 9 8 -5 -5 -12 0 -16 19 -16 35 0 57
-10 57 -25 0 -16 -64 -23 -128 -14 -24 3 -62 2 -85 -2 -23 -4 -73 -8 -111 -9
-63 0 -68 -1 -63 -20 6 -23 26 -21 -218 -25 -99 -1 -173 0 -165 2 8 3 21 12
27 21 16 20 79 42 121 42 22 0 32 5 32 15 0 11 11 15 38 15 20 0 48 3 61 7
l24 6 -24 18 -24 19 32 0 c24 0 37 -7 50 -26z m533 7 c-28 -9 -148 -6 -157 3
-4 3 36 6 88 5 58 0 84 -4 69 -8z m1833 -2 c31 -8 36 -13 27 -24 -9 -10 -32
-13 -97 -9 -77 3 -85 2 -90 -15 -5 -18 -17 -21 -64 -12 -4 0 -10 8 -13 17 -4
10 -2 13 7 8 8 -5 8 -2 -2 9 -16 21 -8 25 64 30 104 7 131 7 168 -4z m2934
-46 c16 -12 -4 -13 -162 -7 -99 4 -195 7 -213 6 -19 -1 -41 2 -50 8 -12 7 49
10 195 9 169 -1 216 -4 230 -16z m-1004 -33 c10 -17 35 -39 56 -49 20 -11 43
-27 50 -35 12 -14 10 -16 -13 -16 -34 0 -33 -12 3 -33 17 -10 48 -35 71 -56
29 -27 63 -46 112 -61 89 -28 106 -62 56 -112 -21 -21 -53 -23 -88 -3 -22 12
-25 20 -25 67 l0 53 -60 -1 c-56 0 -60 -2 -77 -33 l-19 -33 41 7 c33 6 40 4
40 -9 0 -18 -1 -18 -85 -20 l-60 -1 0 -57 c0 -32 3 -58 8 -58 4 0 7 -7 7 -15
0 -8 -4 -15 -10 -15 -5 0 -10 -11 -10 -24 0 -14 -5 -37 -11 -53 -13 -32 -20
-153 -9 -153 4 0 3 -15 -4 -33 -14 -41 -87 -114 -118 -119 -13 -2 -23 -10 -23
-18 0 -8 -8 -16 -18 -18 -15 -3 -18 0 -12 17 7 22 -10 30 -18 9 -4 -10 -7 -10
-18 0 -7 6 -24 12 -38 12 -23 -1 -24 -2 -8 -11 9 -5 17 -17 17 -24 0 -20 -10
-19 -25 1 -11 15 -14 15 -38 -1 -15 -9 -27 -13 -27 -9 0 5 -7 51 -15 103 -8
52 -12 98 -10 102 3 4 -2 23 -10 43 -8 19 -15 50 -15 69 0 41 -35 79 -66 71
-12 -3 -37 1 -57 9 -34 15 -35 17 -30 55 3 24 1 42 -6 46 -13 9 -14 56 -2 90
7 17 7 26 -1 28 -11 4 -8 17 11 48 5 8 15 29 23 47 8 21 15 28 20 20 6 -9 10
-9 17 1 4 8 17 19 28 25 11 7 35 22 54 34 19 13 39 21 44 20 6 -2 13 -34 17
-72 6 -57 11 -73 36 -98 34 -34 81 -38 130 -13 49 26 142 160 142 206 0 6 -11
15 -25 20 -37 14 -43 39 -16 62 34 27 64 23 84 -12z m-3013 -11 c0 -5 -4 -9
-8 -9 -5 0 -9 7 -9 15 0 8 4 12 9 9 4 -3 8 -9 8 -15z m-694 -5 c29 -12 78 -9
70 5 -3 3 17 6 44 6 27 0 44 -3 38 -6 -15 -9 9 -22 28 -15 10 4 14 1 12 -6 -3
-7 -20 -16 -39 -20 -31 -7 -44 -6 -104 9 -11 3 -30 7 -42 10 -12 3 -46 -2 -75
-11 -70 -21 -211 -11 -216 16 -3 14 6 17 45 20 111 7 210 4 239 -8z m734 6 c0
-5 -5 -10 -11 -10 -5 0 -7 5 -4 10 3 6 8 10 11 10 2 0 4 -4 4 -10z m885 -12
c14 -6 25 -15 25 -19 0 -15 76 -30 193 -36 83 -4 117 -10 117 -18 0 -7 -7 -15
-15 -19 -10 -3 -15 -19 -15 -42 0 -32 8 -45 55 -91 30 -29 59 -53 65 -53 6 0
9 -8 6 -17 -5 -19 25 -63 43 -63 6 0 29 -16 51 -36 21 -20 44 -33 49 -30 5 4
12 -3 16 -14 4 -11 10 -18 15 -15 5 3 11 -3 15 -14 6 -21 53 -36 83 -27 22 7
38 -9 40 -41 0 -18 -5 -23 -22 -23 -13 0 -29 7 -36 15 -13 15 -46 14 -94 -5
-22 -8 -45 -54 -46 -95 -1 -5 -12 -23 -25 -40 -24 -28 -26 -29 -31 -10 -5 18
-11 20 -52 15 -40 -4 -48 -9 -50 -28 -6 -40 -40 -47 -170 -33 -64 7 -146 12
-182 12 -75 -2 -212 25 -222 44 -5 7 -38 16 -78 20 -72 7 -88 19 -46 35 25 9
25 14 14 95 -1 6 7 37 17 69 17 54 17 59 2 68 -21 11 -22 51 -2 71 8 8 43 18
77 22 35 3 95 15 133 25 39 10 97 21 130 25 75 9 92 21 69 46 -23 26 -115 25
-197 -1 -94 -30 -123 -21 -118 37 2 16 -5 23 -28 28 -18 4 -31 13 -31 21 0 9
-4 13 -9 10 -11 -7 -22 31 -14 51 3 8 12 12 19 9 8 -3 14 -1 14 4 0 6 11 10
25 10 17 0 23 4 19 15 -6 16 27 27 61 21 11 -2 29 0 40 5 29 11 61 11 90 -3z
m315 2 c0 -5 -13 -10 -30 -10 -16 0 -30 5 -30 10 0 6 14 10 30 10 17 0 30 -4
30 -10z m1274 -90 c-1 -8 -3 -22 -3 -29 -1 -12 -4 -12 -13 -3 -12 12 -13 76
-1 95 8 13 21 -36 17 -63z m-2889 50 c3 -5 -3 -10 -14 -10 -12 0 -21 5 -21 10
0 6 6 10 14 10 8 0 18 -4 21 -10z m-322 -20 c5 -21 -8 -26 -32 -11 -7 5 -10
14 -7 20 11 18 33 13 39 -9z m1266 -14 c9 -11 9 -16 -1 -22 -7 -4 -10 -4 -6 1
4 4 3 14 -3 22 -6 7 -9 13 -6 13 2 0 10 -6 16 -14z m-591 -178 c291 -3 344 -5
352 -18 11 -17 13 -372 3 -497 l-6 -83 -1142 0 -1141 0 -3 -51 c-3 -67 -17
-89 -58 -89 -30 0 -38 8 -34 34 4 19 -21 33 -61 34 -49 0 -98 17 -98 32 0 5
13 10 28 10 16 0 37 7 48 15 17 13 -149 14 -1393 15 l-1413 0 0 293 0 294 553
6 c303 3 1180 4 1947 2 767 -3 1540 -2 1718 2 318 6 322 7 322 27 0 21 0 21
18 -1 17 -21 21 -22 360 -25z m4297 -88 c4 -6 3 -10 -2 -9 -23 4 -22 -4 7 -27
26 -22 28 -28 16 -38 -8 -6 -16 -20 -19 -31 -4 -18 -5 -18 -6 3 0 12 -5 22
-10 22 -5 0 -12 7 -15 16 -3 8 -2 12 4 9 6 -3 10 -1 10 4 0 6 -10 11 -22 11
l-21 0 23 25 c27 29 27 28 35 15z m31 -107 c-10 -10 -19 5 -10 18 6 11 8 11
12 0 2 -7 1 -15 -2 -18z m-1082 -109 c3 -9 6 -26 6 -39 0 -20 5 -23 36 -23 47
0 65 -20 68 -71 1 -23 8 -47 14 -53 20 -20 14 -48 -14 -58 -14 -6 -29 -8 -34
-5 -5 3 -19 -11 -31 -32 -21 -33 -23 -47 -21 -157 1 -67 -2 -126 -6 -131 -16
-24 -80 -53 -105 -48 -21 4 -27 12 -32 47 -17 101 -72 162 -141 154 -26 -3
-31 -1 -22 9 6 7 19 13 29 13 20 0 91 30 100 43 3 5 18 5 32 1 29 -7 39 12 13
22 -13 5 -12 11 4 42 10 21 28 91 40 157 11 66 22 126 25 133 6 17 32 15 39
-4z m-2644 -43 c0 -22 -6 -30 -22 -35 -21 -5 -61 -34 -109 -79 -17 -16 -20
-16 -26 -2 -3 10 4 27 19 43 14 15 28 34 30 42 5 15 73 57 96 59 7 1 12 -11
12 -28z m1402 -5 c24 17 162 1 188 -21 8 -8 29 -16 45 -20 78 -17 95 -33 110
-98 l6 -29 -33 25 c-50 39 -125 67 -175 67 -58 0 -123 19 -144 42 -9 10 -21
18 -26 18 -15 0 -34 25 -26 33 3 4 15 0 25 -9 11 -11 22 -14 30 -8z m-1412
-67 c0 -4 -11 -9 -25 -11 -15 -3 -25 -1 -25 6 0 6 11 11 25 11 14 0 25 -3 25
-6z m70 -80 c0 -11 -13 -34 -30 -50 -22 -23 -35 -28 -53 -23 -30 7 -38 -5 -42
-59 -7 -100 -42 -123 -52 -35 -5 39 -2 46 21 61 21 14 25 23 20 42 -3 14 -3
32 0 42 6 15 8 15 19 -2 12 -16 14 -15 30 8 9 14 29 27 44 30 16 2 31 5 36 6
4 0 7 -8 7 -20z m37 -179 c-1 -27 -5 -50 -9 -50 -5 0 -8 7 -8 15 0 8 -5 24
-12 34 -9 15 -9 23 1 35 23 27 30 18 28 -34z m153 21 c0 -5 -7 -12 -16 -15
-13 -5 -14 -9 -4 -21 9 -11 8 -19 -7 -39 -10 -14 -22 -26 -26 -26 -14 0 -20
31 -9 53 5 12 13 30 16 40 5 17 46 25 46 8z m108 -27 c-3 -17 -34 -42 -41 -34
-3 3 -8 15 -11 28 -7 20 -4 22 24 22 24 0 31 -4 28 -16z m1707 -24 c0 -7 -6
-15 -12 -17 -8 -3 -13 4 -13 17 0 13 5 20 13 18 6 -3 12 -11 12 -18z m-4545
-26 c18 -45 13 -56 -22 -52 -39 4 -49 30 -22 59 23 25 33 24 44 -7z m-833 -36
c-3 -8 -6 -5 -6 6 -1 11 2 17 5 13 3 -3 4 -12 1 -19z m5771 0 c19 -19 14 -37
-8 -31 -11 3 -20 14 -20 24 0 22 11 24 28 7z m-2452 -118 c-4 -30 -3 -49 4
-52 6 -2 1 -9 -10 -16 -18 -11 -21 -10 -30 13 -11 28 -20 31 -38 13 -8 -8 -12
-9 -12 -1 0 6 7 18 15 27 8 8 15 23 15 34 0 24 3 27 35 29 27 1 27 0 21 -47z
m232 -2 c29 -37 30 -43 17 -58 -22 -25 -18 -38 12 -42 33 -4 41 -24 12 -31
-15 -4 -20 -11 -17 -24 3 -13 -2 -22 -18 -30 -28 -13 -33 2 -28 87 3 43 0 71
-11 92 -30 62 -13 65 33 6z m182 -74 c0 -12 7 -27 15 -34 11 -9 14 -22 10 -42
-4 -18 -3 -28 5 -28 6 0 9 -4 6 -9 -3 -5 1 -14 9 -21 8 -7 15 -20 15 -29 0
-12 -7 -8 -26 12 -17 18 -32 26 -44 22 -11 -3 -20 0 -23 10 -4 9 -13 12 -23 8
-9 -3 -20 0 -25 8 -15 23 -10 39 12 39 28 0 23 43 -6 48 -11 2 -24 8 -30 14
-7 6 0 7 18 3 21 -6 27 -4 27 9 0 12 8 16 30 14 23 -2 30 -7 30 -24z m-3133
-20 c-15 -13 -35 -24 -44 -24 -9 0 -1 12 22 30 44 35 64 30 22 -6z m2883 -58
c0 -26 -22 -36 -35 -16 -3 6 -17 10 -31 10 -13 0 -24 5 -24 10 0 6 5 10 10 10
6 0 10 9 10 20 0 11 -4 20 -10 20 -17 0 -11 18 7 22 24 5 73 -46 73 -76z
m-152 -4 c2 -7 -6 -12 -17 -12 -12 0 -21 -6 -21 -12 0 -9 -4 -8 -10 2 -14 21
-12 28 8 33 23 6 35 3 40 -11z m333 -72 c9 -24 17 -30 42 -31 l32 -1 -27 -9
c-15 -6 -30 -18 -33 -28 -8 -27 -42 -55 -50 -42 -3 6 1 18 9 26 18 18 11 45
-13 46 -12 0 -10 3 6 11 18 9 20 15 13 34 -6 16 -6 24 1 24 5 0 15 -13 20 -30z
m-316 -30 c3 -5 1 -10 -4 -10 -6 0 -11 5 -11 10 0 6 2 10 4 10 3 0 8 -4 11
-10z m77 -41 c17 -9 18 -13 7 -20 -23 -15 -39 -10 -39 11 0 23 4 24 32 9z
m345 -40 c-13 -32 -14 -33 -21 -11 -4 12 -13 22 -19 22 -7 0 -1 9 13 20 33 25
45 11 27 -31z m-244 -16 c-6 -15 -23 -18 -23 -4 0 5 3 17 6 26 5 12 9 14 14 4
5 -7 6 -18 3 -26z m-2060 -198 c21 -8 37 -22 37 -30 0 -9 11 -20 25 -25 14 -5
25 -17 25 -25 0 -20 -28 -31 -43 -16 -18 18 -47 13 -67 -11 -16 -20 -21 -21
-56 -11 -22 7 -70 16 -108 21 -64 8 -73 7 -110 -14 -34 -20 -50 -23 -96 -18
-56 6 -129 33 -130 47 0 5 5 17 11 28 9 17 13 18 27 7 12 -10 14 -10 8 0 -5 8
0 12 18 12 13 0 36 4 50 10 39 14 33 -8 -6 -25 -28 -12 -31 -20 -5 -16 4 0 7
-4 7 -9 0 -11 39 -13 64 -4 9 3 16 14 16 24 0 45 9 49 78 44 55 -4 74 -1 107
16 44 23 85 22 148 -5z m-563 -25 c0 -5 -4 -10 -9 -10 -6 0 -13 5 -16 10 -3 6
1 10 9 10 9 0 16 -4 16 -10z m6587 -7 c3 -10 15 -26 27 -35 21 -17 21 -18 -12
-18 -28 0 -35 -5 -47 -34 -18 -41 -37 -50 -54 -24 -9 15 -19 18 -37 14 -35 -9
-71 18 -72 53 -1 27 2 28 76 43 103 21 112 21 119 1z m-662 -9 c17 -1 34 -3
38 -3 5 -1 5 -6 2 -11 -4 -6 -15 -8 -25 -5 -12 4 -27 -2 -39 -14 -25 -25 -33
-27 -25 -6 9 22 -26 32 -41 12 -12 -17 -45 -24 -45 -10 0 4 12 18 27 31 21 17
34 21 53 16 14 -4 39 -9 55 -10z m120 -14 c-21 -23 -24 -24 -45 -10 -13 9 -13
11 0 20 8 5 26 10 39 10 23 0 24 -1 6 -20z m195 -4 c6 -8 23 -16 37 -18 34 -4
54 -35 33 -48 -20 -13 -26 -12 -44 5 -21 21 -145 28 -153 9 -3 -8 -13 -14 -23
-14 -11 0 -22 -4 -25 -10 -10 -15 -35 -12 -35 5 0 21 -26 19 -47 -4 -26 -27
-58 -34 -72 -17 -19 23 -3 38 31 31 23 -6 33 -3 44 14 18 25 39 27 48 6 9 -24
45 -18 85 14 32 25 54 34 97 40 6 0 17 -5 24 -13z m-570 -58 c0 -5 -4 -8 -10
-8 -5 0 -10 10 -10 23 0 18 2 19 10 7 5 -8 10 -18 10 -22z m-7758 -7 c4 -4 3
-22 -4 -41 -6 -19 -14 -84 -17 -145 l-6 -110 -124 2 c-71 2 -130 8 -135 13 -6
6 -13 70 -15 147 -2 106 0 138 10 145 16 10 280 0 291 -11z m7948 15 c0 -3 -4
-8 -10 -11 -5 -3 -10 -1 -10 4 0 6 5 11 10 11 6 0 10 -2 10 -4z m-7096 -32
c11 -10 16 -34 16 -70 0 -43 4 -56 18 -60 56 -18 118 -53 148 -83 19 -20 34
-39 34 -43 0 -16 -62 -4 -75 15 -9 12 -20 17 -30 13 -9 -3 -32 1 -51 10 -26
13 -33 21 -29 35 8 24 -26 27 -45 4 -7 -8 -21 -15 -32 -15 -15 0 -19 6 -17 28
4 37 -30 101 -57 108 -22 6 -40 46 -29 64 11 17 132 12 149 -6z m-104 -224 c0
-5 -4 -10 -10 -10 -5 0 -10 5 -10 10 0 6 5 10 10 10 6 0 10 -4 10 -10z m2160
-252 c-163 -221 -211 -283 -219 -286 -5 -1 -16 10 -26 25 -13 19 -14 28 -6 31
6 2 20 22 31 45 33 71 269 306 278 277 2 -5 -24 -47 -58 -92z m-3760 58 c0 -3
-14 -12 -32 -20 -35 -18 -114 -23 -88 -6 8 5 29 10 47 10 17 0 35 5 38 10 6
10 35 14 35 6z m5973 -20 c7 -18 -1 -26 -25 -26 -11 0 -18 7 -18 20 0 23 35
28 43 6z m-4628 -16 c3 -5 1 -10 -4 -10 -6 0 -11 5 -11 10 0 6 2 10 4 10 3 0
8 -4 11 -10z m8038 -317 c-7 -2 -21 -2 -30 0 -10 3 -4 5 12 5 17 0 24 -2 18
-5z m-4853 -353 c0 -5 -5 -10 -11 -10 -5 0 -7 5 -4 10 3 6 8 10 11 10 2 0 4
-4 4 -10z"/>
<path d="M5893 4553 c9 -2 25 -2 35 0 9 3 1 5 -18 5 -19 0 -27 -2 -17 -5z"/>
<path d="M5841 3984 c0 -11 3 -14 6 -6 3 7 2 16 -1 19 -3 4 -6 -2 -5 -13z"/>
<path d="M5528 3812 c-55 -33 -20 -61 51 -42 38 10 68 40 54 54 -13 12 -79 5
-105 -12z"/>
<path d="M6325 3801 c-3 -5 -1 -13 5 -16 14 -9 70 4 70 16 0 12 -67 12 -75 0z"/>
<path d="M4711 3731 c-11 -20 -5 -51 9 -51 11 0 19 60 9 66 -4 2 -13 -4 -18
-15z"/>
<path d="M6380 3746 c0 -9 30 -14 35 -6 4 6 -3 10 -14 10 -12 0 -21 -2 -21 -4z"/>
<path d="M4459 3680 c-7 -56 -4 -66 23 -68 34 -3 54 28 38 58 -11 21 -59 28
-61 10z"/>
<path d="M4720 3646 c0 -22 3 -27 11 -19 8 8 8 16 0 30 -9 16 -10 14 -11 -11z"/>
<path d="M7424 3465 c3 -8 1 -15 -4 -15 -6 0 -9 -26 -8 -57 l2 -58 3 50 c2 28
8 54 14 60 12 13 11 35 -2 35 -6 0 -9 -7 -5 -15z"/>
<path d="M6936 3201 c-9 -16 -16 -33 -16 -36 0 -10 25 1 26 11 0 5 4 17 9 27
13 31 -3 30 -19 -2z"/>
<path d="M7770 2510 c0 -5 7 -10 16 -10 8 0 12 5 9 10 -3 6 -10 10 -16 10 -5
0 -9 -4 -9 -10z"/>
<path d="M870 2931 c0 -5 6 -14 14 -20 12 -10 13 -8 9 8 -5 21 -23 30 -23 12z"/>
<path d="M2520 2920 c6 -11 12 -20 14 -20 2 0 2 9 -1 20 -3 11 -9 20 -15 20
-5 0 -4 -9 2 -20z"/>
<path d="M3380 2920 c6 -11 12 -20 14 -20 2 0 2 9 -1 20 -3 11 -9 20 -15 20
-5 0 -4 -9 2 -20z"/>
<path d="M1038 2923 c7 -3 16 -2 19 1 4 3 -2 6 -13 5 -11 0 -14 -3 -6 -6z"/>
<path d="M3538 2923 c6 -2 18 -2 25 0 6 3 1 5 -13 5 -14 0 -19 -2 -12 -5z"/>
<path d="M4658 2923 c6 -2 18 -2 25 0 6 3 1 5 -13 5 -14 0 -19 -2 -12 -5z"/>
<path d="M630 2905 c0 -8 5 -15 11 -15 8 0 7 -5 -1 -15 -14 -17 -10 -28 7 -17
11 7 16 26 14 50 -2 17 -31 15 -31 -3z"/>
<path d="M1590 2825 c0 -57 4 -95 10 -95 6 0 10 38 10 95 0 57 -4 95 -10 95
-6 0 -10 -38 -10 -95z"/>
<path d="M2070 2831 c0 -50 5 -93 10 -96 6 -3 10 5 10 19 0 40 20 42 51 5 33
-39 39 -20 9 26 -19 29 -19 29 2 52 18 19 19 23 5 23 -8 0 -24 -11 -35 -25
-11 -14 -23 -25 -26 -25 -3 0 -6 25 -6 55 0 30 -4 55 -10 55 -6 0 -10 -36 -10
-89z"/>
<path d="M3730 2830 c0 -67 3 -90 13 -89 6 1 20 -1 30 -6 26 -11 65 10 73 40
15 60 -29 110 -75 86 -20 -11 -21 -9 -21 24 0 19 -4 35 -10 35 -6 0 -10 -37
-10 -90z m78 8 c26 -26 8 -88 -25 -88 -23 0 -38 46 -25 75 13 27 31 32 50 13z"/>
<path d="M4142 2828 c3 -97 21 -128 26 -46 6 90 62 88 62 -3 0 -27 5 -49 10
-49 6 0 10 27 10 60 0 49 -3 61 -20 70 -12 6 -30 8 -40 5 -17 -5 -20 -2 -20
24 0 21 -5 31 -15 31 -13 0 -15 -15 -13 -92z"/>
<path d="M4853 2830 c2 -85 15 -120 27 -69 8 33 23 33 43 -1 10 -16 22 -30 28
-30 14 0 11 11 -11 48 -19 30 -19 34 -4 57 23 35 0 33 -31 -2 l-24 -28 -1 58
c0 42 -4 57 -14 57 -11 0 -14 -19 -13 -90z"/>
<path d="M344 2897 c-3 -8 -4 -47 -2 -88 l3 -74 47 1 c25 0 53 6 62 13 20 17
21 57 0 69 -14 8 -14 10 0 21 21 18 20 34 -2 54 -23 21 -100 23 -108 4z m94
-31 c5 -22 -13 -36 -45 -36 -19 0 -23 5 -23 31 0 28 2 30 32 27 23 -2 34 -9
36 -22z m6 -73 c9 -22 -4 -33 -40 -36 -25 -2 -29 2 -32 26 -3 25 -1 27 31 27
23 0 37 -6 41 -17z"/>
<path d="M5112 2898 c-15 -15 -16 -38 -2 -38 6 0 13 7 16 15 7 17 50 20 59 4
4 -6 -4 -27 -18 -46 -34 -48 -23 -64 14 -21 46 54 35 98 -26 98 -17 0 -36 -5
-43 -12z"/>
<path d="M703 2875 c-6 -14 -7 -25 -2 -25 5 0 9 -22 9 -49 0 -53 18 -78 47
-66 16 6 16 8 -4 18 -18 8 -23 18 -23 49 0 31 5 40 23 48 18 7 19 9 4 9 -11 1
-21 10 -24 21 -7 27 -16 25 -30 -5z"/>
<path d="M2350 2881 c0 -11 -6 -22 -12 -24 -10 -4 -10 -6 0 -6 8 -1 12 -18 12
-50 0 -53 18 -78 47 -66 16 6 16 8 -4 18 -19 8 -23 18 -23 54 0 38 3 43 23 44
l22 0 -22 9 c-13 5 -23 16 -23 25 0 8 -4 15 -10 15 -5 0 -10 -9 -10 -19z"/>
<path d="M2010 2880 c-8 -4 -27 -13 -43 -19 -26 -10 -27 -14 -24 -66 2 -30 0
-55 -5 -55 -4 0 -8 -9 -8 -20 0 -41 89 -46 114 -8 15 24 -10 48 -50 48 -19 0
-34 5 -34 10 0 6 11 10 24 10 33 0 50 24 42 60 -4 23 -2 30 10 30 8 0 12 5 9
10 -7 12 -15 12 -35 0z m-2 -53 c4 -20 -25 -34 -40 -19 -15 15 -1 44 19 40 10
-2 19 -11 21 -21z m15 -94 c12 -11 -14 -33 -39 -33 -25 0 -39 14 -29 30 7 11
58 14 68 3z"/>
<path d="M3235 2880 c-3 -5 -15 -10 -26 -10 -28 0 -62 -37 -51 -56 5 -10 5
-35 0 -61 -12 -54 -3 -67 48 -66 76 2 85 65 10 71 -40 4 -50 22 -12 22 33 0
50 24 42 60 -3 17 -1 30 4 30 6 0 10 5 10 10 0 6 -4 10 -9 10 -6 0 -13 -4 -16
-10z m-10 -55 c0 -13 -8 -21 -22 -23 -17 -3 -23 2 -23 16 0 10 3 22 7 26 13
13 38 1 38 -19z m13 -102 c-4 -20 -45 -30 -60 -15 -16 16 1 32 33 32 24 0 30
-4 27 -17z"/>
<path d="M528 2863 c-20 -5 -32 -33 -15 -33 7 0 18 5 24 11 15 15 43 4 43 -15
0 -9 -12 -16 -31 -18 -39 -4 -59 -30 -43 -55 8 -13 24 -18 55 -17 l44 1 3 46
c2 36 -2 51 -17 66 -21 21 -30 23 -63 14z m52 -82 c0 -20 -32 -37 -50 -26 -17
10 -11 25 13 35 33 13 37 12 37 -9z"/>
<path d="M1257 2863 c-27 -4 -28 -5 -25 -66 4 -73 22 -83 26 -15 3 47 25 79
42 62 5 -5 10 -31 12 -59 4 -67 22 -64 28 5 4 47 8 55 25 55 17 0 20 -8 23
-50 5 -75 22 -81 22 -7 0 51 -3 63 -20 72 -14 8 -26 8 -41 -1 -15 -8 -24 -8
-32 0 -6 6 -16 10 -21 10 -6 -1 -24 -4 -39 -6z"/>
<path d="M1464 2856 c-24 -18 -13 -31 14 -15 22 14 56 5 50 -13 -3 -7 -19 -16
-38 -19 -53 -11 -67 -51 -24 -71 19 -9 30 -9 43 -1 14 9 21 9 30 0 8 -8 11 5
11 51 0 50 -3 63 -19 72 -27 14 -44 13 -67 -4z m64 -72 c-5 -26 -35 -41 -50
-26 -11 11 -9 16 6 28 26 19 48 18 44 -2z"/>
<path d="M1831 2861 c-8 -5 -20 -7 -28 -4 -11 4 -13 -7 -11 -58 3 -74 22 -86
26 -17 6 90 62 88 62 -3 0 -27 5 -49 10 -49 6 0 10 24 10 54 0 71 -28 103 -69
77z"/>
<path d="M2211 2851 c-40 -40 -14 -121 39 -121 47 0 78 73 48 113 -22 28 -63
32 -87 8z m58 -10 c32 -21 12 -90 -27 -91 -22 0 -37 47 -24 75 12 26 27 31 51
16z"/>
<path d="M2889 2850 c-18 -14 -20 -19 -8 -20 8 0 20 5 26 11 15 15 43 4 43
-16 0 -10 -10 -15 -28 -15 -48 0 -70 -43 -36 -71 12 -10 22 -10 45 -2 18 7 29
8 29 2 0 -6 5 -7 10 -4 19 12 12 93 -10 115 -25 25 -42 25 -71 0z m59 -72 c-2
-17 -10 -23 -27 -23 -32 0 -39 23 -9 34 35 15 40 13 36 -11z"/>
<path d="M3055 2860 c-4 -6 -16 -8 -26 -5 -19 6 -20 2 -17 -57 3 -73 22 -85
26 -16 6 86 62 89 62 2 0 -23 5 -46 10 -49 6 -4 10 16 10 54 0 49 -4 62 -19
71 -25 13 -38 13 -46 0z"/>
<path d="M3907 2859 c-38 -22 -41 -98 -4 -121 20 -13 54 -9 67 7 17 21 6 29
-18 14 -17 -10 -23 -10 -36 0 -27 22 -18 31 29 31 37 0 45 3 45 18 0 40 -49
70 -83 51z m51 -32 c3 -13 -3 -17 -27 -17 -33 0 -39 8 -19 28 17 17 42 11 46
-11z"/>
<path d="M4030 2852 c-28 -22 -18 -49 23 -60 17 -4 32 -13 35 -20 6 -18 -28
-27 -50 -13 -27 16 -38 3 -14 -15 23 -17 40 -18 67 -4 34 19 18 70 -22 70 -23
0 -34 19 -20 33 9 9 16 8 31 -1 11 -7 21 -8 25 -2 5 9 -25 30 -43 30 -5 0 -20
-8 -32 -18z"/>
<path d="M4999 2852 c-43 -35 -18 -122 35 -122 27 0 40 9 55 37 17 33 14 51
-14 78 -29 30 -45 31 -76 7z m60 -16 c17 -20 10 -67 -11 -79 -23 -15 -48 8
-48 42 0 45 35 66 59 37z"/>
<path d="M975 2853 c-45 -9 -45 -12 -14 -58 17 -24 27 -50 24 -57 -4 -7 2 -3
12 8 10 12 25 24 33 27 12 4 11 6 -2 6 -17 1 -19 7 -22 53 -1 21 -7 25 -31 21z"/>
<path d="M1652 2804 c3 -65 23 -88 57 -67 14 9 21 9 30 0 8 -8 11 6 11 56 0
76 -17 92 -22 21 -2 -32 -9 -51 -21 -58 -24 -15 -37 6 -37 62 0 23 -5 42 -10
42 -7 0 -10 -22 -8 -56z"/>
<path d="M2626 2851 c-4 -6 -13 -8 -21 -5 -32 12 -33 -8 -4 -48 16 -23 27 -49
24 -57 -4 -14 -4 -14 7 0 7 8 22 21 33 27 17 10 18 11 3 12 -17 0 -19 6 -22
52 -1 21 -12 32 -20 19z"/>
<path d="M3485 2849 c-4 -5 -14 -8 -22 -5 -31 12 -32 -7 -3 -48 16 -24 26 -47
22 -51 -4 -5 5 0 19 11 22 16 24 20 12 33 -9 8 -12 23 -9 37 6 24 -8 42 -19
23z"/>
<path d="M4270 2855 c0 -2 11 -29 25 -60 26 -61 25 -77 -7 -92 -27 -12 -11
-24 18 -13 26 10 90 170 68 170 -7 0 -19 -18 -25 -40 -7 -22 -15 -40 -19 -40
-4 0 -13 18 -20 40 -7 22 -19 40 -27 40 -7 0 -13 -2 -13 -5z"/>
<path d="M4605 2850 c-4 -6 -14 -9 -22 -6 -29 12 -33 -6 -8 -38 14 -18 25 -41
25 -50 0 -16 2 -16 24 1 13 10 19 21 14 24 -6 4 -11 20 -12 37 -2 35 -11 49
-21 32z"/>
<path d="M5145 2760 c-4 -6 -3 -16 3 -22 6 -6 12 -6 17 2 4 6 3 16 -3 22 -6 6
-12 6 -17 -2z"/>
<path d="M9381 2951 c-8 -6 -9 -11 -3 -15 6 -3 14 -1 17 5 9 14 2 20 -14 10z"/>
<path d="M8380 2620 c0 -5 5 -10 10 -10 6 0 10 5 10 10 0 6 -4 10 -10 10 -5 0
-10 -4 -10 -10z"/>
<path d="M8200 2401 c0 -13 29 -35 37 -28 7 8 -15 37 -28 37 -5 0 -9 -4 -9 -9z"/>
<path d="M8265 2270 c3 -5 8 -10 11 -10 2 0 4 5 4 10 0 6 -5 10 -11 10 -5 0
-7 -4 -4 -10z"/>
<path d="M3264 4965 c-8 -43 -1 -63 23 -65 10 -1 79 -3 154 -4 114 -1 139 -4
153 -19 24 -23 82 -22 113 3 14 11 32 20 39 20 8 0 14 7 14 15 0 18 36 34 62
27 10 -2 18 -12 18 -21 0 -25 57 -24 160 0 94 23 240 68 240 75 0 2 -218 4
-485 4 l-484 0 -7 -35z"/>
<path d="M6295 4990 c3 -5 8 -10 11 -10 2 0 4 5 4 10 0 6 -5 10 -11 10 -5 0
-7 -4 -4 -10z"/>
<path d="M6350 4996 c0 -8 51 -13 56 -5 3 5 -9 9 -25 9 -17 0 -31 -2 -31 -4z"/>
<path d="M6985 4990 c4 -6 11 -8 16 -5 14 9 11 15 -7 15 -8 0 -12 -5 -9 -10z"/>
<path d="M7130 4996 c0 -8 61 -12 66 -4 3 4 -11 8 -30 8 -20 0 -36 -2 -36 -4z"/>
<path d="M7275 4990 c4 -6 11 -8 16 -5 14 9 11 15 -7 15 -8 0 -12 -5 -9 -10z"/>
<path d="M7328 4993 c7 -3 16 -2 19 1 4 3 -2 6 -13 5 -11 0 -14 -3 -6 -6z"/>
<path d="M7689 4991 c16 -10 6 -71 -12 -71 -7 0 -5 -5 3 -10 13 -7 15 -34 13
-169 -2 -126 1 -161 11 -161 12 0 27 24 40 63 7 21 33 17 27 -4 -2 -8 -4 -23
-5 -34 -1 -20 6 -20 498 -22 320 -2 505 1 517 8 14 7 19 6 19 -2 0 -7 12 -9
35 -5 19 3 51 9 70 12 23 4 35 2 35 -5 0 -17 407 -15 413 2 4 8 8 9 14 1 5 -7
111 -14 321 -18 l312 -7 0 124 c0 107 -2 126 -17 131 -15 6 -15 8 1 19 13 9
17 24 14 57 -3 40 -6 45 -35 52 -31 8 -48 31 -20 27 23 -3 37 1 37 11 0 6
-133 10 -379 10 -352 0 -379 -1 -386 -17 -6 -17 -7 -17 -20 0 -9 13 -23 17
-46 15 -27 -2 -35 -9 -42 -33 -5 -16 -20 -38 -34 -49 l-25 -19 7 24 c4 13 13
36 20 52 l13 27 -99 0 c-110 0 -109 1 -84 -70 18 -52 18 -50 2 -50 -8 0 -19
11 -25 25 -6 14 -15 25 -20 25 -5 0 -14 16 -22 35 l-14 35 -143 0 c-83 0 -142
-4 -139 -9 3 -5 3 -23 0 -40 -5 -25 -13 -32 -43 -38 l-36 -7 40 -6 c32 -4 40
-9 40 -25 0 -16 -6 -19 -31 -17 -21 2 -33 -2 -37 -12 -7 -19 -38 -21 -55 -4
-15 15 -16 58 0 58 6 0 4 8 -6 19 -9 10 -18 32 -19 50 -2 29 -4 31 -42 29 -38
-1 -39 -1 -7 -5 29 -4 33 -7 28 -26 -3 -12 -6 -28 -6 -34 0 -8 -15 -13 -40
-13 -33 0 -40 3 -40 19 0 25 -12 33 -30 20 -12 -8 -12 -12 -2 -16 22 -9 2 -23
-32 -23 -30 0 -34 4 -38 30 -3 16 0 34 6 40 7 7 -74 10 -255 10 -151 0 -258
-4 -250 -9z m481 -8 c-1 -35 -14 -53 -41 -53 -16 0 -29 3 -29 8 0 4 -3 17 -6
30 -6 20 -3 22 35 22 22 0 41 -3 41 -7z m1000 -114 c-5 -8 -15 -21 -23 -27
-14 -12 -14 -10 0 98 l5 45 13 -50 c8 -29 10 -56 5 -66z m234 85 c4 -10 1 -14
-6 -12 -15 5 -23 28 -10 28 5 0 13 -7 16 -16z m-1053 -54 c15 0 19 -7 19 -34
0 -30 -3 -34 -32 -39 -25 -4 -37 0 -49 14 -14 16 -18 16 -23 4 -3 -9 -18 -15
-36 -15 -28 0 -30 3 -30 36 l0 37 45 -6 c26 -4 47 -2 51 4 3 6 13 8 21 5 8 -3
23 -6 34 -6z m-305 -110 c0 -52 -1 -101 -4 -107 -5 -16 -38 -17 -48 -2 -4 8
-9 8 -17 0 -6 -6 -26 -11 -44 -11 -30 0 -38 8 -34 32 0 4 -8 22 -19 40 -26 43
-25 55 5 62 29 7 24 26 -6 26 -33 0 -18 32 21 45 19 7 60 12 90 11 l55 -1 1
-95z m1311 85 c8 -22 -6 -33 -17 -15 -13 20 -12 30 0 30 6 0 13 -7 17 -15z
m-103 -11 c10 -25 7 -34 -9 -34 -9 0 -15 9 -15 25 0 28 15 34 24 9z m196 -36
c0 -5 -4 -8 -10 -8 -5 0 -10 10 -10 23 0 18 2 19 10 7 5 -8 10 -18 10 -22z
m-650 2 c0 -5 -7 -10 -15 -10 -8 0 -15 5 -15 10 0 6 7 10 15 10 8 0 15 -4 15
-10z m-452 -30 c10 0 12 -3 7 -9 -6 -5 -43 -12 -84 -16 -58 -5 -72 -4 -69 7 3
8 21 13 46 13 22 0 44 4 48 8 4 4 14 5 22 2 7 -3 21 -5 30 -5z m669 -12 c-3
-8 -6 -5 -6 6 -1 11 2 17 5 13 3 -3 4 -12 1 -19z m53 0 c0 -7 -9 -24 -20 -38
-17 -22 -19 -23 -26 -7 -4 11 0 25 11 37 21 23 35 26 35 8z m700 -27 c0 -6 -4
-13 -10 -16 -5 -3 -10 1 -10 9 0 9 5 16 10 16 6 0 10 -4 10 -9z m-854 -38 c-5
-12 -10 -13 -18 -5 -8 8 -8 15 3 28 15 18 25 4 15 -23z m1063 12 c1 -2 0 -8
-3 -13 -8 -13 -69 1 -74 17 -4 11 4 12 34 6 22 -4 41 -8 43 -10z m-349 0 c0
-3 -9 -14 -20 -25 -20 -20 -25 -15 -14 14 5 14 34 23 34 11z m55 -35 c3 -5 1
-10 -4 -10 -6 0 -11 5 -11 10 0 6 2 10 4 10 3 0 8 -4 11 -10z m35 -14 c0 -3
-4 -8 -10 -11 -5 -3 -10 -1 -10 4 0 6 5 11 10 11 6 0 10 -2 10 -4z m-281 -45
c-15 -5 -22 6 -14 19 6 9 10 9 16 -1 5 -8 4 -15 -2 -18z m261 -2 c0 -5 -11 -9
-25 -9 -27 0 -32 9 -13 28 12 12 38 -1 38 -19z"/>
<path d="M7971 4821 c-10 -6 -9 -10 3 -14 8 -3 18 -2 21 3 8 13 -9 20 -24 11z"/>
<path d="M7970 4710 c0 -5 7 -10 15 -10 8 0 15 5 15 10 0 6 -7 10 -15 10 -8 0
-15 -4 -15 -10z"/>
<path d="M8230 4996 c0 -9 50 -12 62 -5 8 6 -1 9 -24 9 -21 0 -38 -2 -38 -4z"/>
<path d="M6986 4921 c-4 -5 -2 -12 3 -15 5 -4 12 -2 15 3 4 5 2 12 -3 15 -5 4
-12 2 -15 -3z"/>
<path d="M7275 4920 c-2 -3 0 -12 4 -19 6 -9 11 -10 15 -2 4 6 18 8 31 5 12
-3 26 -1 29 4 3 6 -12 12 -35 14 -22 2 -42 1 -44 -2z"/>
<path d="M7373 4918 c-5 -10 -4 -10 91 -10 43 1 81 3 84 6 3 3 -8 6 -24 7 -16
0 -55 1 -87 2 -33 1 -61 -1 -64 -5z"/>
<path d="M7078 4913 c7 -3 16 -2 19 1 4 3 -2 6 -13 5 -11 0 -14 -3 -6 -6z"/>
<path d="M7180 4909 c0 -5 5 -7 10 -4 6 3 10 8 10 11 0 2 -4 4 -10 4 -5 0 -10
-5 -10 -11z"/>
<path d="M7570 4916 c0 -2 6 -9 14 -15 10 -9 15 -8 20 4 4 10 -1 15 -14 15
-11 0 -20 -2 -20 -4z"/>
<path d="M2812 4870 c0 -19 2 -27 5 -17 2 9 2 25 0 35 -3 9 -5 1 -5 -18z"/>
<path d="M6982 4819 c2 -6 8 -10 13 -10 5 0 11 4 13 10 2 6 -4 11 -13 11 -9 0
-15 -5 -13 -11z"/>
<path d="M7075 4820 c4 -6 11 -8 16 -5 14 9 11 15 -7 15 -8 0 -12 -5 -9 -10z"/>
<path d="M7280 4816 c0 -12 7 -14 33 -9 39 7 48 13 19 13 -11 0 -27 3 -36 6
-10 4 -16 1 -16 -10z"/>
<path d="M7386 4821 c-4 -5 -2 -12 3 -15 5 -4 12 -2 15 3 4 5 2 12 -3 15 -5 4
-12 2 -15 -3z"/>
<path d="M7475 4820 c-8 -13 20 -24 36 -15 8 6 7 10 -2 16 -18 11 -26 11 -34
-1z"/>
<path d="M7580 4815 c0 -8 5 -15 10 -15 6 0 10 7 10 15 0 8 -4 15 -10 15 -5 0
-10 -7 -10 -15z"/>
<path d="M4038 4808 c9 -9 15 -9 24 0 9 9 7 12 -12 12 -19 0 -21 -3 -12 -12z"/>
<path d="M6887 4724 c-3 -3 -3 -12 0 -20 4 -11 9 -12 19 -3 8 6 11 15 8 20 -6
10 -18 12 -27 3z"/>
<path d="M6975 4721 c-7 -12 12 -24 25 -16 11 7 4 25 -10 25 -5 0 -11 -4 -15
-9z"/>
<path d="M7175 4720 c-8 -13 15 -24 27 -12 6 6 4 11 -6 15 -8 3 -18 2 -21 -3z"/>
<path d="M7284 4718 c-10 -16 4 -20 33 -11 l28 10 -28 5 c-15 3 -30 1 -33 -4z"/>
<path d="M7386 4723 c-11 -11 -6 -23 9 -23 8 0 15 4 15 9 0 13 -16 22 -24 14z"/>
<path d="M7485 4719 c-10 -15 3 -25 16 -12 7 7 7 13 1 17 -6 3 -14 1 -17 -5z"/>
<path d="M4040 4710 c0 -5 5 -10 10 -10 6 0 10 5 10 10 0 6 -4 10 -10 10 -5 0
-10 -4 -10 -10z"/>
<path d="M7050 4716 c0 -2 11 -6 25 -8 14 -3 25 -1 25 3 0 5 -11 9 -25 9 -14
0 -25 -2 -25 -4z"/>
<path d="M7575 4710 c3 -5 8 -10 11 -10 2 0 4 5 4 10 0 6 -5 10 -11 10 -5 0
-7 -4 -4 -10z"/>
<path d="M7277 4634 c-13 -13 -7 -24 14 -24 11 0 19 5 17 12 -5 14 -22 21 -31
12z"/>
<path d="M6980 4620 c0 -5 5 -10 10 -10 6 0 10 5 10 10 0 6 -4 10 -10 10 -5 0
-10 -4 -10 -10z"/>
<path d="M7180 4620 c0 -5 11 -10 25 -10 14 0 25 5 25 10 0 6 -11 10 -25 10
-14 0 -25 -4 -25 -10z"/>
<path d="M7380 4620 c0 -5 5 -10 10 -10 6 0 10 5 10 10 0 6 -4 10 -10 10 -5 0
-10 -4 -10 -10z"/>
<path d="M7480 4620 c0 -5 5 -10 10 -10 6 0 10 5 10 10 0 6 -4 10 -10 10 -5 0
-10 -4 -10 -10z"/>
<path d="M4509 4599 c-9 -5 -5 -10 13 -14 32 -8 59 -3 59 10 -1 12 -55 15 -72
4z"/>
<path d="M4103 4523 c-34 -7 -28 -18 18 -33 43 -15 74 -6 74 21 0 15 -49 21
-92 12z"/>
<path d="M8010 4520 c-13 -9 -13 -11 0 -19 8 -6 12 -13 8 -16 -3 -4 -12 0 -19
8 -7 8 -22 12 -32 9 -14 -4 -15 -7 -6 -13 9 -5 4 -10 -15 -15 -16 -4 -31 -2
-35 4 -4 6 -11 4 -21 -6 -13 -14 -12 -15 2 -10 8 4 20 2 25 -3 12 -12 63 -1
63 12 0 5 7 9 16 9 9 0 12 -5 8 -12 -4 -7 1 -6 12 4 10 9 30 18 43 20 24 3 24
4 7 21 -20 19 -34 21 -56 7z"/>
<path d="M6645 4510 c11 -4 23 -6 28 -3 4 2 7 -1 7 -6 0 -7 27 -11 70 -11 75
0 100 19 28 21 -24 1 -68 3 -98 4 -33 1 -47 -1 -35 -5z"/>
<path d="M6920 4500 c0 -5 7 -10 15 -10 8 0 15 5 15 10 0 6 -7 10 -15 10 -8 0
-15 -4 -15 -10z"/>
<path d="M5541 4474 c0 -11 3 -14 6 -6 3 7 2 16 -1 19 -3 4 -6 -2 -5 -13z"/>
<path d="M5666 4475 c-3 -8 -1 -15 4 -15 6 0 10 7 10 15 0 8 -2 15 -4 15 -2 0
-6 -7 -10 -15z"/>
<path d="M8595 4480 c-46 -6 -44 -7 30 -8 44 -1 87 3 95 8 17 11 -43 11 -125
0z"/>
<path d="M8763 4479 c11 -7 32 -7 60 -1 l42 10 -60 1 c-46 0 -56 -2 -42 -10z"/>
<path d="M4045 4470 c-4 -6 3 -10 14 -10 25 0 27 6 6 13 -8 4 -17 2 -20 -3z"/>
<path d="M4498 4411 c-59 -18 -62 -31 -7 -31 51 0 75 -13 83 -45 6 -24 29 -34
40 -16 3 4 2 28 -2 52 -7 38 -11 44 -37 49 -17 3 -51 -1 -77 -9z"/>
<path d="M9508 4406 c-53 -19 -33 -23 97 -17 29 1 5 18 -35 23 -19 3 -47 0
-62 -6z"/>
<path d="M4028 4333 c6 -2 18 -2 25 0 6 3 1 5 -13 5 -14 0 -19 -2 -12 -5z"/>
<path d="M4265 4330 c-3 -5 -1 -10 4 -10 6 0 11 5 11 10 0 6 -2 10 -4 10 -3 0
-8 -4 -11 -10z"/>
<path d="M4174 4255 c-3 -8 -3 -19 1 -25 9 -14 35 6 35 26 0 19 -29 18 -36 -1z"/>
<path d="M7968 4231 c-15 -16 -24 -31 -21 -35 22 -22 113 16 113 47 0 29 -60
21 -92 -12z"/>
<path d="M7654 4165 c-13 -32 23 -48 47 -19 10 13 10 17 -2 25 -21 13 -39 11
-45 -6z"/>
<path d="M9013 4153 c-44 -30 -20 -53 55 -53 17 0 32 5 32 10 0 6 -7 10 -15
10 -9 0 -21 11 -27 25 -13 29 -15 29 -45 8z"/>
<path d="M8885 4110 c3 -5 11 -10 16 -10 6 0 7 5 4 10 -3 6 -11 10 -16 10 -6
0 -7 -4 -4 -10z"/>
<path d="M8755 3900 c-4 -6 8 -10 30 -10 22 0 34 4 30 10 -3 6 -17 10 -30 10
-13 0 -27 -4 -30 -10z"/>
<path d="M9625 3890 c-3 -5 1 -10 9 -10 9 0 16 5 16 10 0 6 -4 10 -9 10 -6 0
-13 -4 -16 -10z"/>
<path d="M9740 3880 c38 -12 99 -12 80 0 -8 5 -35 9 -60 9 -37 -1 -41 -2 -20
-9z"/>
<path d="M9873 3873 c9 -2 25 -2 35 0 9 3 1 5 -18 5 -19 0 -27 -2 -17 -5z"/>
<path d="M1670 3766 c0 -2 7 -7 16 -10 8 -3 12 -2 9 4 -6 10 -25 14 -25 6z"/>
<path d="M1445 3658 c4 -13 11 -27 16 -33 5 -5 4 5 -2 23 -12 36 -24 44 -14
10z"/>
<path d="M9810 3664 c0 -8 5 -12 10 -9 6 3 10 10 10 16 0 5 -4 9 -10 9 -5 0
-10 -7 -10 -16z"/>
<path d="M1587 3530 c-25 -28 -26 -30 -8 -39 21 -12 32 -5 24 15 -3 9 1 14 12
14 13 0 15 3 6 13 -6 8 -8 17 -4 20 3 4 4 7 1 7 -2 0 -17 -13 -31 -30z"/>
<path d="M1215 3510 c-3 -5 -1 -10 4 -10 6 0 11 5 11 10 0 6 -2 10 -4 10 -3 0
-8 -4 -11 -10z"/>
<path d="M1522 3476 c-34 -19 -37 -25 -11 -21 50 7 71 17 57 26 -16 10 -17 10
-46 -5z"/>
<path d="M9820 3435 c-45 -13 -40 -17 25 -17 65 0 75 2 75 13 0 5 -4 8 -9 4
-5 -3 -12 -1 -16 5 -8 12 -18 12 -75 -5z"/>
<path d="M9170 2599 c0 -11 5 -17 10 -14 6 3 10 13 10 21 0 8 -4 14 -10 14 -5
0 -10 -9 -10 -21z"/>
<path d="M7850 1000 c0 -5 17 -10 38 -10 27 0 33 3 22 10 -20 13 -60 13 -60 0z"/>
<path d="M8000 975 c0 -11 111 -55 138 -55 l27 1 -25 14 c-14 7 -43 17 -65 21
-22 3 -48 10 -57 16 -10 5 -18 6 -18 3z"/>
<path d="M4900 950 c-23 -23 -24 -35 -9 -77 12 -35 60 -55 51 -21 -2 10 1 18
7 18 7 0 9 -4 6 -10 -3 -5 -1 -10 5 -10 7 0 9 7 6 16 -3 9 -6 32 -6 52 0 28
-3 33 -10 22 -8 -13 -10 -13 -10 2 0 27 -18 30 -40 8z"/>
<path d="M8200 898 c66 -41 155 -85 185 -92 17 -4 38 -9 48 -12 10 -3 17 0 17
8 0 18 -73 53 -184 89 -107 35 -111 35 -66 7z"/>
<path d="M7163 763 c-27 -5 -29 -16 -8 -33 17 -14 100 -15 138 -1 21 8 27 8
27 -3 0 -8 -12 -17 -27 -21 -16 -3 -35 -13 -43 -20 -22 -19 -137 -55 -177 -55
-46 0 -69 -14 -77 -47 -4 -16 -15 -45 -23 -65 -14 -32 -20 -37 -41 -31 -19 4
-23 2 -20 -13 3 -17 -5 -19 -67 -22 -55 -2 -73 -7 -87 -22 -13 -16 -35 -21
-120 -27 -56 -5 -119 -6 -138 -3 -91 13 -123 -17 -68 -63 30 -26 37 -28 83
-21 64 9 106 9 235 -1 98 -7 106 -6 123 13 10 11 19 36 20 56 1 20 5 36 9 36
5 0 7 -39 5 -86 -2 -75 -5 -88 -24 -104 -12 -9 -21 -19 -20 -22 1 -2 -8 7 -20
21 -22 25 -22 25 -44 6 -28 -26 -80 -26 -97 0 -10 16 -12 16 -8 3 3 -11 0 -18
-9 -18 -7 0 -16 -8 -19 -18 -4 -10 -12 -19 -19 -20 -6 -1 -26 -4 -43 -8 -18
-3 -41 -1 -52 5 -19 10 -22 8 -32 -28 -8 -30 -7 -53 3 -93 l13 -53 492 -3 492
-2 0 24 c0 16 -7 26 -22 30 -21 6 -21 8 -7 19 9 6 16 17 15 22 -1 6 12 11 28
13 l29 4 -7 -56 -7 -56 359 0 359 0 -5 28 c-2 18 2 33 12 41 9 8 16 28 16 46
0 25 -6 34 -27 44 l-26 12 43 44 c29 29 57 47 86 54 66 17 53 24 -28 17 -90
-9 -155 -22 -232 -47 -78 -25 -93 -24 -92 3 1 20 -11 27 -88 53 -114 38 -125
57 -70 109 35 33 37 37 22 49 -9 7 -47 19 -84 27 l-69 13 55 18 c30 10 56 19
58 19 1 0 2 7 2 15 0 17 -22 23 -108 28 -52 3 -67 8 -93 33 -17 16 -36 43 -44
59 -24 57 -73 92 -90 65 -4 -6 -41 -10 -88 -9 -50 1 -74 5 -62 9 22 8 23 8
-44 29 -33 11 -104 13 -148 4z m-333 -333 c-20 -13 -73 -13 -65 0 3 6 23 10
43 10 28 0 33 -3 22 -10z m466 -130 c13 5 24 6 24 1 0 -4 16 -8 35 -9 63 -2
74 -23 24 -41 -41 -14 -92 -14 -106 0 -8 8 -17 8 -32 0 -17 -10 -21 -9 -21 3
0 19 43 61 48 47 2 -6 12 -7 28 -1z"/>
<path d="M7 733 c-4 -3 -7 -32 -7 -64 0 -49 2 -57 16 -52 12 4 14 14 10 34 -5
24 -2 29 14 29 11 0 20 5 20 10 0 6 6 10 14 10 7 0 19 6 25 14 9 11 7 15 -11
20 -31 8 -73 8 -81 -1z"/>
<path d="M125 710 c-3 -6 1 -7 9 -4 9 3 16 1 16 -6 0 -6 5 -8 11 -4 8 4 7 9
-2 15 -18 11 -26 11 -34 -1z"/>
<path d="M490 710 c0 -5 5 -10 10 -10 6 0 10 5 10 10 0 6 -4 10 -10 10 -5 0
-10 -4 -10 -10z"/>
<path d="M558 713 c6 -2 18 -2 25 0 6 3 1 5 -13 5 -14 0 -19 -2 -12 -5z"/>
<path d="M698 713 c12 -2 30 -2 40 0 9 3 -1 5 -23 4 -22 0 -30 -2 -17 -4z"/>
<path d="M210 706 c0 -2 7 -7 16 -10 8 -3 12 -2 9 4 -6 10 -25 14 -25 6z"/>
<path d="M1800 675 c-28 -16 -110 -108 -110 -124 0 -19 26 -12 67 18 49 35 83
77 83 102 0 22 -6 23 -40 4z"/>
<path d="M1959 653 c-71 -57 -120 -114 -117 -136 2 -12 11 -23 20 -25 22 -4
128 101 128 127 0 11 5 23 10 26 12 7 13 35 2 35 -5 0 -24 -12 -43 -27z"/>
<path d="M71 633 c33 -4 36 -6 31 -31 l-6 -27 -7 25 -7 25 -1 -28 c-1 -16 -5
-26 -11 -22 -5 3 -10 1 -10 -4 0 -15 -33 -14 -48 1 -9 9 -12 1 -12 -39 0 -41
4 -53 17 -56 17 -4 17 -5 1 -6 -12 -1 -18 -9 -18 -27 0 -25 1 -25 75 -23 72 2
98 10 75 24 -6 4 -8 10 -5 15 2 4 -14 8 -37 8 -24 1 -44 6 -46 11 -2 6 -12 11
-23 11 -10 0 -19 4 -19 10 0 6 18 7 45 3 31 -4 45 -2 45 6 0 6 14 11 31 11 19
0 28 4 23 11 -4 7 0 9 12 5 11 -3 26 -1 34 5 13 9 12 10 -2 5 -10 -3 -18 -2
-18 3 0 9 67 31 96 31 11 0 27 7 36 14 16 12 16 14 -5 24 -12 6 -80 13 -152
15 -72 2 -114 2 -94 0z m22 -120 c-7 -2 -19 -2 -25 0 -7 3 -2 5 12 5 14 0 19
-2 13 -5z"/>
<path d="M388 623 c-10 -2 -18 -9 -18 -14 0 -15 27 -22 58 -14 26 6 26 7 8 21
-11 8 -22 13 -25 13 -3 -1 -14 -3 -23 -6z"/>
<path d="M4928 573 c12 -2 32 -2 45 0 12 2 2 4 -23 4 -25 0 -35 -2 -22 -4z"/>
<path d="M170 438 c0 -4 21 -8 48 -7 52 1 48 6 -10 11 -21 2 -38 0 -38 -4z"/>
<path d="M307 443 c-4 -3 -7 -17 -7 -30 0 -12 -6 -24 -12 -24 -7 -1 -31 -2
-53 -3 -102 -5 -110 -6 -95 -16 8 -5 11 -10 6 -10 -5 0 -1 -9 9 -20 10 -11 16
-22 14 -23 -23 -18 -86 -37 -122 -37 l-46 0 0 -140 -1 -140 233 0 232 0 103
52 c56 29 101 57 99 63 -6 18 -76 30 -98 17 -10 -7 -28 -12 -38 -12 -29 0 -71
21 -71 35 0 8 -10 10 -25 7 -18 -3 -25 0 -25 11 0 8 6 18 13 21 6 4 -6 4 -28
1 -28 -3 -35 -2 -25 5 17 11 54 13 63 3 4 -3 2 -12 -4 -20 -9 -10 -8 -13 5
-13 9 0 19 7 23 15 3 11 17 15 42 14 20 -1 56 3 81 10 25 6 64 11 88 11 29 0
48 6 64 22 l21 21 -5 -21 c-4 -12 -2 -22 3 -22 5 0 9 9 9 20 0 12 7 21 18 21
9 1 -12 5 -48 10 -36 5 -104 6 -152 2 -75 -5 -88 -3 -88 10 0 21 25 25 236 41
100 7 186 16 193 20 16 10 14 26 -4 26 -9 0 -19 8 -22 18 -9 24 -25 33 -40 21
-7 -6 -17 -8 -23 -4 -6 4 -9 1 -8 -7 2 -9 -7 -12 -27 -10 -27 2 -28 1 -7 -8
35 -15 26 -18 -18 -6 -29 7 -36 12 -24 16 30 11 -5 18 -71 14 -80 -5 -85 -6
-85 -15 0 -4 17 -6 38 -4 20 2 8 -2 -28 -10 -96 -21 -137 -19 -143 5 -3 11 -2
18 3 15 4 -3 11 6 14 20 7 27 26 34 26 10 0 -8 5 -15 10 -15 6 0 10 7 10 15 0
11 12 15 46 15 43 0 45 -1 33 -17 -13 -16 -12 -17 3 -4 10 7 16 17 13 21 -7
12 -215 9 -215 -2 0 -5 5 -6 11 -3 6 4 5 -2 -3 -14 -7 -12 -14 -17 -16 -13 -1
5 -21 6 -42 2 -35 -6 -40 -5 -40 11 0 11 5 19 10 19 6 0 10 -5 10 -10 0 -6 15
-10 34 -8 19 1 33 5 31 9 -3 3 -15 4 -29 2 -13 -3 -27 0 -30 6 -8 12 -20 14
-29 4z m133 -64 c12 -8 10 -9 -9 -4 -17 5 -22 4 -16 -5 5 -9 4 -11 -4 -6 -6 4
-9 12 -6 17 8 12 16 11 35 -2z m465 -15 c18 -13 16 -14 -23 -14 -23 0 -42 2
-42 4 0 2 -3 12 -6 21 -5 13 -2 15 22 9 16 -4 38 -13 49 -20z m-728 -8 c-3 -8
1 -17 9 -20 23 -9 34 -7 34 4 0 6 -7 10 -15 10 -8 0 -15 4 -15 10 0 6 9 6 23
1 12 -4 28 -7 35 -5 7 1 8 0 2 -3 -14 -7 -13 -21 3 -26 6 -2 3 -3 -8 -1 -11 1
-29 -1 -40 -6 -13 -5 0 -8 39 -9 76 -1 87 -11 14 -11 -31 0 -68 -2 -84 -4 -16
-2 -21 -1 -11 1 21 5 22 26 2 43 -13 11 -13 15 -3 21 18 12 21 11 15 -5z m151
-37 c-3 -8 -7 -3 -11 10 -4 17 -3 21 5 13 5 -5 8 -16 6 -23z m-23 11 c3 -5 -1
-10 -10 -10 -9 0 -13 5 -10 10 3 6 8 10 10 10 2 0 7 -4 10 -10z m175 -50 c0
-5 -5 -10 -11 -10 -5 0 -7 5 -4 10 3 6 8 10 11 10 2 0 4 -4 4 -10z m-217 -112
c7 -10 10 -10 14 0 2 6 9 12 14 12 6 0 7 -4 4 -10 -3 -5 0 -10 7 -10 9 0 10
-2 2 -8 -7 -4 -43 -5 -80 -2 l-69 4 50 6 50 7 -50 1 c-30 1 -58 -4 -69 -13
-36 -28 -140 -16 -122 13 9 15 238 14 249 0z m77 -78 c0 -5 -13 -10 -30 -10
-16 0 -30 5 -30 10 0 6 14 10 30 10 17 0 30 -4 30 -10z"/>
<path d="M848 368 c6 -6 18 -8 28 -6 14 3 12 5 -9 10 -19 3 -25 2 -19 -4z"/>
<path d="M543 403 c9 -2 23 -2 30 0 6 3 -1 5 -18 5 -16 0 -22 -2 -12 -5z"/>
<path d="M1406 328 c-9 -12 -16 -38 -16 -58 0 -22 -15 -65 -39 -112 -21 -42
-42 -94 -46 -117 l-7 -41 324 0 c267 0 328 3 352 15 15 8 33 15 39 15 24 0 97
33 97 44 0 6 -13 19 -30 28 -16 9 -32 28 -36 42 -3 14 -14 28 -24 31 -10 3
-33 21 -51 40 -40 41 -93 62 -113 46 -8 -6 -26 -30 -42 -52 -58 -85 -91 -113
-128 -111 -18 1 -65 -9 -103 -23 -39 -14 -76 -25 -84 -25 -7 0 -23 -10 -37
-22 l-24 -23 -20 28 c-11 15 -26 27 -33 27 -19 0 -27 33 -16 64 7 16 18 26 30
26 50 0 67 26 31 48 -25 15 -25 32 -1 74 32 56 35 78 12 78 -11 0 -27 -10 -35
-22z"/>
<path d="M1187 253 c-26 -51 -30 -73 -13 -73 18 0 42 33 51 73 6 21 4 27 -9
27 -8 0 -22 -12 -29 -27z"/>
<path d="M770 234 c0 -8 5 -12 10 -9 6 3 10 10 10 16 0 5 -4 9 -10 9 -5 0 -10
-7 -10 -16z"/>
<path d="M6645 240 c-3 -5 -1 -10 4 -10 6 0 11 5 11 10 0 6 -2 10 -4 10 -3 0
-8 -4 -11 -10z"/>
<path d="M845 139 c-26 -31 -32 -79 -10 -86 13 -4 68 94 60 107 -10 17 -22 12
-50 -21z"/>
<path d="M1142 117 c-10 -12 -52 -103 -52 -113 0 -2 15 -4 33 -4 31 0 34 3 35
31 0 17 4 43 7 59 7 31 -7 47 -23 27z"/>
<path d="M982 64 c-19 -7 -47 -25 -64 -39 l-30 -25 60 0 c58 0 60 1 71 32 14
41 4 50 -37 32z"/>
<path d="M620 23 c-76 -7 -71 -23 8 -23 68 0 92 10 56 24 -9 3 -16 5 -17 4 -1
-1 -22 -3 -47 -5z"/>
</g>
</svg>
